<?xml version="1.0" encoding="utf-8"?>
<!-- Generator: Adobe Illustrator 16.0.3, SVG Export Plug-In . SVG Version: 6.00 Build 0)  -->
<!DOCTYPE svg PUBLIC "-//W3C//DTD SVG 1.1//EN" "http://www.w3.org/Graphics/SVG/1.1/DTD/svg11.dtd">
<svg version="1.1" xmlns="http://www.w3.org/2000/svg" xmlns:xlink="http://www.w3.org/1999/xlink" x="0px" y="0px" width="72px"
	 height="72px" viewBox="0 0 72 72" enable-background="new 0 0 72 72" xml:space="preserve">
<g id="Layer_1">
</g>
<g id="Step_1">
</g>
<g id="Step_2">
</g>
<g id="Step_3">
	<path fill-rule="evenodd" clip-rule="evenodd" fill="#EBEBEB" d="M49.336,39.496c1.741,0,3.328,0.71,4.47,1.852
		c1.142,1.146,1.855,2.727,1.855,4.474c0,0.246-0.021,0.48-0.04,0.715l3.73,6.472h0.039c0.652,0,1.255-0.264,1.683-0.702
		c0.438-0.428,0.704-1.021,0.704-1.672V19.403c0-0.657-0.266-1.249-0.693-1.682l-0.011-0.005c-0.428-0.428-1.03-0.693-1.683-0.693
		H13.122c-0.655,0-1.258,0.271-1.687,0.699c-0.428,0.433-0.698,1.03-0.698,1.682v31.233c0,0.651,0.266,1.244,0.698,1.672v0.009
		c0.429,0.428,1.024,0.692,1.687,0.692h26.196l3.735-6.472c-0.024-0.235-0.04-0.47-0.04-0.715c0-1.748,0.704-3.329,1.851-4.474
		C46.006,40.206,47.586,39.496,49.336,39.496z"/>
	<path fill-rule="evenodd" clip-rule="evenodd" d="M59.352,53.021h0.039c0.652,0,1.255-0.275,1.693-0.713
		c0.428-0.428,0.693-1.021,0.693-1.672V19.408c0-0.657-0.266-1.254-0.693-1.682v-0.005c-0.438-0.428-1.03-0.699-1.693-0.699H13.122
		c-0.655,0-1.253,0.271-1.682,0.704c-0.433,0.428-0.703,1.025-0.703,1.682v31.228c0,0.651,0.271,1.244,0.698,1.672l0.005,0.009
		c0.429,0.428,1.026,0.704,1.682,0.704h26.196 M38.634,54.203H13.122c-0.978,0-1.874-0.398-2.523-1.05l0,0l0,0l-0.008-0.011
		c-0.644-0.641-1.041-1.538-1.041-2.506V19.408c0-0.984,0.397-1.881,1.049-2.528c0.644-0.647,1.541-1.045,2.523-1.045h46.269
		c0.98,0,1.877,0.397,2.529,1.045v0.005c0.652,0.647,1.051,1.54,1.051,2.523v31.228c0,0.977-0.398,1.875-1.051,2.517
		c-0.51,0.51-1.172,0.866-1.917,1l0,0 M49.336,53.041 M56.169,55.365 M58.474,53.857c0.013,0.029,0.033,0.062,0.052,0.1l0,0
		 M46.734,30.949c0.326,0,0.598,0.264,0.598,0.591c0,0.332-0.271,0.602-0.598,0.602H25.779c-0.325,0-0.591-0.27-0.591-0.602
		c0-0.327,0.266-0.591,0.591-0.591H46.734L46.734,30.949z M19.781,25.52c-0.331,0-0.598-0.265-0.598-0.597
		c0-0.326,0.267-0.597,0.598-0.597h32.954c0.336,0,0.602,0.271,0.602,0.597c0,0.332-0.266,0.597-0.602,0.597H19.781L19.781,25.52z
		 M36.261,39.524c0.324,0,0.597,0.263,0.597,0.589c0,0.333-0.272,0.597-0.597,0.597H19.781c-0.331,0-0.598-0.264-0.598-0.597
		c0-0.326,0.267-0.589,0.598-0.589H36.261L36.261,39.524z M19.781,45.71c-0.331,0-0.598-0.264-0.598-0.601
		c0-0.326,0.267-0.593,0.598-0.593h16.479c0.324,0,0.597,0.267,0.597,0.593c0,0.337-0.272,0.601-0.597,0.601H19.781L19.781,45.71z"
		/>
	<path fill-rule="evenodd" clip-rule="evenodd" fill="#12A98A" d="M59.406,52.426l0.608,1.053l0,0l1.347,2.323
		c0.075,0.114,0.113,0.264,0.075,0.417c-0.057,0.294-0.351,0.493-0.646,0.425l-4.098-0.854l-1.308,3.977l0,0
		c-0.037,0.123-0.135,0.227-0.247,0.303c-0.267,0.151-0.607,0.066-0.76-0.199l-5.73-9.882l6.208-5.512L59.406,52.426h0.037
		 M58.639,53.297"/>
	<path fill-rule="evenodd" clip-rule="evenodd" fill="#12A98A" d="M39.115,52.426h0.037l4.55-7.949l6.209,5.512l-5.731,9.882
		c-0.151,0.266-0.492,0.351-0.758,0.199c-0.113-0.076-0.21-0.18-0.247-0.303l0,0l-1.309-3.977l-4.098,0.854
		c-0.296,0.067-0.589-0.131-0.645-0.425c-0.04-0.153,0-0.304,0.074-0.417l1.349-2.323l0,0l0.605-1.053 M39.921,53.297"/>
	<path fill-rule="evenodd" clip-rule="evenodd" fill="#B39459" d="M54.126,39.916c-1.241-1.233-2.949-2.008-4.842-2.008
		c-1.895,0-3.61,0.775-4.843,2.008c-1.246,1.245-2.007,2.955-2.007,4.854c0,1.88,0.761,3.596,2.007,4.835
		c0.961,0.968,2.221,1.646,3.623,1.908h0.041l0.048,0.012h0.027l0.061,0.012h0.014l0.068,0.016h0.013h0.07h0.005l0.081,0.027l0,0
		h0.077h0.012h0.069h0.014l0.062,0.012h0.033l0.048,0.015h0.033h0.041h0.048h0.034h0.055h0.021h0.066h0.015l0.067,0.013h0.015h0.083
		h0.073h0.015l0.067-0.013h0.021h0.06h0.026h0.05h0.033h0.048h0.041h0.041l0.046-0.015h0.029l0.061-0.012h0.021h0.068h0.007h0.074
		h0.007l0.075-0.027h0.008h0.075h0.006l0.062-0.016h0.027l0.054-0.012h0.034l0.048-0.012h0.032c1.411-0.262,2.665-0.94,3.633-1.908
		c1.237-1.239,2-2.955,2-4.835C56.126,42.871,55.363,41.161,54.126,39.916z"/>
</g>
<g id="Business_Training">
</g>
<g id="Variety">
</g>
<g id="Student_Support">
</g>
<g id="Hands_on_Traning">
</g>
<g id="Audio_Feedback">
</g>
<g id="Qualified_Tutors">
</g>
</svg>
