<?xml version="1.0" encoding="utf-8"?>
<!-- Generator: Adobe Illustrator 16.0.3, SVG Export Plug-In . SVG Version: 6.00 Build 0)  -->
<!DOCTYPE svg PUBLIC "-//W3C//DTD SVG 1.1//EN" "http://www.w3.org/Graphics/SVG/1.1/DTD/svg11.dtd">
<svg version="1.1" xmlns="http://www.w3.org/2000/svg" xmlns:xlink="http://www.w3.org/1999/xlink" x="0px" y="0px" width="72px"
	 height="72px" viewBox="0 0 72 72" enable-background="new 0 0 72 72" xml:space="preserve">
<g id="Layer_1">
</g>
<g id="Step_1">
	<g>
		<path fill="none" d="M63.009,54.888H9.767c-0.175,0-0.33-0.069-0.46-0.166c0.13,0.103,0.284,0.175,0.464,0.175h53.238
			c0.208,0,0.398-0.086,0.536-0.225c0.138-0.138,0.219-0.33,0.219-0.538c0,0.208-0.086,0.4-0.225,0.538
			C63.407,54.802,63.217,54.888,63.009,54.888z"/>
		<path fill="none" d="M59.794,51.279h0.005V21.261c0-0.208-0.086-0.399-0.226-0.538c0.14,0.139,0.221,0.33,0.221,0.538V51.279z"/>
		<path fill="none" d="M9.068,52.754c0.005-0.012,0.017-0.021,0.022-0.034C9.084,52.732,9.073,52.742,9.068,52.754z"/>
		<path fill="none" d="M14.531,49.347V22.429c0-0.276,0.224-0.502,0.501-0.502h42.713c0.186,0,0.341,0.104,0.43,0.251
			c-0.088-0.153-0.246-0.259-0.431-0.259H15.032c-0.282,0-0.507,0.225-0.507,0.51v26.918c0,0.104,0.04,0.195,0.094,0.274
			C14.568,49.542,14.531,49.451,14.531,49.347z"/>
		<path fill="none" d="M59.579,20.723c-0.03-0.028-0.071-0.044-0.106-0.068c0.032,0.024,0.072,0.04,0.101,0.068H59.579z"/>
		<path fill="none" d="M63.524,52.492c-0.034-0.031-0.08-0.05-0.12-0.075c0.047,0.029,0.097,0.052,0.135,0.091
			c0.139,0.139,0.225,0.33,0.225,0.536c0-0.206-0.081-0.397-0.219-0.536L63.524,52.492z"/>
		<path fill="#EBEBEB" d="M12.98,51.279h46.813V21.261c0-0.208-0.081-0.399-0.221-0.538c-0.028-0.028-0.068-0.044-0.101-0.068
			c-0.125-0.085-0.271-0.148-0.436-0.148H13.738c-0.208,0-0.399,0.086-0.537,0.216c-0.134,0.139-0.221,0.33-0.221,0.538V51.279z
			 M14.525,22.429c0-0.286,0.225-0.51,0.507-0.51h42.712c0.185,0,0.343,0.106,0.431,0.259c0.045,0.076,0.078,0.158,0.078,0.251
			v26.918c0,0.286-0.229,0.511-0.508,0.511H15.032c-0.176,0-0.323-0.097-0.413-0.236c-0.054-0.08-0.094-0.171-0.094-0.274V22.429z"
			/>
		<path fill="#EBEBEB" d="M63.404,52.417c-0.117-0.072-0.249-0.124-0.396-0.124h-2.706h-47.83H9.771
			c-0.212,0-0.401,0.087-0.536,0.215c-0.061,0.061-0.106,0.135-0.144,0.212c-0.006,0.012-0.018,0.021-0.022,0.034
			c-0.038,0.09-0.059,0.188-0.059,0.29v1.091c0,0.208,0.086,0.4,0.225,0.538c0.021,0.021,0.049,0.032,0.072,0.05
			c0.13,0.096,0.285,0.166,0.46,0.166h53.242c0.208,0,0.398-0.086,0.53-0.215c0.139-0.138,0.225-0.33,0.225-0.538v-1.091
			c0-0.206-0.086-0.397-0.225-0.536C63.501,52.468,63.451,52.446,63.404,52.417z M44.574,54.015H27.868
			c-0.278,0-0.509-0.227-0.509-0.513c0-0.276,0.23-0.5,0.509-0.5h16.706c0.276,0,0.502,0.225,0.502,0.5
			C45.076,53.789,44.851,54.015,44.574,54.015z"/>
		<path d="M64.258,51.799c-0.007-0.01-0.021-0.026-0.029-0.035c-0.319-0.305-0.75-0.485-1.22-0.485h-2.196V21.261
			c0-0.486-0.204-0.927-0.52-1.248h-0.005c-0.321-0.319-0.761-0.52-1.251-0.52H13.738c-0.486,0-0.928,0.2-1.247,0.52h-0.005
			c-0.32,0.321-0.516,0.762-0.516,1.248v30.018h-2.2c-0.484,0-0.93,0.199-1.251,0.52C8.2,52.12,8,52.559,8,53.044v1.091
			c0,0.487,0.2,0.926,0.52,1.247c0.321,0.331,0.762,0.529,1.251,0.529h53.238c0.487,0,0.929-0.199,1.249-0.529
			c0.322-0.311,0.52-0.76,0.52-1.247v-1.091C64.777,52.559,64.58,52.12,64.258,51.799z M12.976,21.261
			c0-0.208,0.087-0.399,0.226-0.538c0.138-0.138,0.329-0.225,0.537-0.225h45.299c0.164,0,0.31,0.065,0.436,0.156
			c0.035,0.024,0.076,0.04,0.106,0.068h-0.006c0.14,0.139,0.226,0.33,0.226,0.538v30.018h-0.005H12.98h-0.005V21.261z
			 M63.764,54.135c0,0.208-0.081,0.4-0.219,0.538c-0.138,0.139-0.328,0.225-0.536,0.225H9.771c-0.18,0-0.334-0.072-0.464-0.175
			c-0.023-0.018-0.055-0.029-0.076-0.05c-0.138-0.138-0.221-0.33-0.221-0.538v-1.091c0-0.103,0.021-0.2,0.059-0.29
			c0.005-0.012,0.016-0.021,0.022-0.034c0.032-0.07,0.07-0.138,0.122-0.196l0.018-0.016c0.139-0.138,0.328-0.215,0.536-0.215h0.004
			h2.702h47.83h2.706c0.148,0,0.278,0.051,0.396,0.124c0.04,0.025,0.086,0.044,0.12,0.075l0.021,0.016
			c0.138,0.139,0.219,0.33,0.219,0.536V54.135z"/>
		<path d="M57.745,21.927H15.032c-0.277,0-0.501,0.226-0.501,0.502v26.918c0,0.104,0.037,0.195,0.088,0.274
			c0.09,0.133,0.237,0.227,0.413,0.227h42.712c0.275,0,0.505-0.225,0.505-0.501V22.429c0-0.093-0.031-0.176-0.074-0.251
			C58.086,22.031,57.931,21.927,57.745,21.927z M57.24,48.844H15.539V22.94H57.24V48.844z"/>
		<path d="M12.98,21.261c0-0.208,0.087-0.399,0.221-0.538c-0.139,0.139-0.226,0.33-0.226,0.538v30.018h0.005V21.261z"/>
		<path d="M59.037,20.507c0.165,0,0.311,0.063,0.436,0.148c-0.126-0.091-0.271-0.156-0.436-0.156H13.738
			c-0.208,0-0.399,0.086-0.537,0.225c0.138-0.13,0.329-0.216,0.537-0.216H59.037z"/>
		<path d="M58.249,49.347c0,0.276-0.229,0.501-0.505,0.501H15.032c-0.176,0-0.323-0.093-0.413-0.227
			c0.09,0.139,0.237,0.236,0.413,0.236h42.713c0.279,0,0.508-0.225,0.508-0.511V22.429c0-0.093-0.033-0.175-0.078-0.251
			c0.043,0.075,0.074,0.158,0.074,0.251V49.347z"/>
		<path d="M44.574,53.002H27.868c-0.278,0-0.509,0.225-0.509,0.5c0,0.286,0.23,0.513,0.509,0.513h16.706
			c0.276,0,0.502-0.227,0.502-0.513C45.076,53.227,44.851,53.002,44.574,53.002z"/>
		<path d="M63.009,52.292c0.146,0,0.278,0.052,0.396,0.124C63.287,52.344,63.157,52.292,63.009,52.292z"/>
		<path d="M9.01,53.044c0-0.102,0.021-0.2,0.059-0.29C9.03,52.844,9.01,52.941,9.01,53.044z"/>
		<path d="M9.771,52.292H9.767c-0.208,0-0.397,0.077-0.536,0.215l-0.018,0.016c-0.052,0.058-0.09,0.126-0.122,0.196
			c0.037-0.078,0.083-0.152,0.144-0.212C9.369,52.379,9.559,52.292,9.771,52.292z"/>
		<path d="M9.01,54.135c0,0.208,0.083,0.4,0.221,0.538c0.021,0.021,0.053,0.032,0.076,0.05c-0.023-0.018-0.052-0.029-0.072-0.05
			C9.096,54.535,9.01,54.343,9.01,54.135z"/>
	</g>
	<path fill-rule="evenodd" clip-rule="evenodd" fill="#B39459" d="M48.347,35.889c0,1.674-1.357,3.033-3.033,3.033H27.456
		c-1.676,0-3.033-1.358-3.033-3.033l0,0c0-1.676,0.565-3.034,3.033-3.034h17.857C46.989,32.855,48.347,34.213,48.347,35.889
		L48.347,35.889z"/>
	<path fill="#66499E" d="M51.668,39.409c-0.01-0.108-0.082-0.2-0.185-0.234l-6.1-2.048c-0.098-0.032-0.206-0.008-0.279,0.065
		c-0.072,0.073-0.099,0.181-0.064,0.279l2.043,6.101c0.033,0.103,0.125,0.174,0.232,0.185c0.01,0,0.018,0,0.025,0
		c0.098,0,0.189-0.054,0.238-0.141l0.989-1.824l1.655,1.657c0.05,0.051,0.12,0.08,0.192,0.08c0.071,0,0.141-0.029,0.191-0.08
		l0.749-0.749c0.106-0.106,0.107-0.278,0-0.385l-1.66-1.652l1.83-0.994C51.621,39.62,51.678,39.516,51.668,39.409z"/>
</g>
<g id="Step_2">
</g>
<g id="Step_3">
</g>
<g id="Business_Training">
</g>
<g id="Variety">
</g>
<g id="Student_Support">
</g>
<g id="Hands_on_Traning">
</g>
<g id="Audio_Feedback">
</g>
<g id="Qualified_Tutors">
</g>
</svg>
