<?xml version="1.0" encoding="utf-8"?>
<!-- Generator: Adobe Illustrator 16.0.3, SVG Export Plug-In . SVG Version: 6.00 Build 0)  -->
<!DOCTYPE svg PUBLIC "-//W3C//DTD SVG 1.1//EN" "http://www.w3.org/Graphics/SVG/1.1/DTD/svg11.dtd">
<svg version="1.1" id="Layer_1" xmlns="http://www.w3.org/2000/svg" xmlns:xlink="http://www.w3.org/1999/xlink" x="0px" y="0px"
	 width="128.109px" height="132.619px" viewBox="0 0 128.109 132.619" enable-background="new 0 0 128.109 132.619"
	 xml:space="preserve">
<g id="Layer_1_1_" display="none">
	<g display="inline">
		
			<linearGradient id="SVGID_1_" gradientUnits="userSpaceOnUse" x1="20.2576" y1="-370.686" x2="114.2942" y2="-464.7227" gradientTransform="matrix(1 0 0 -1 0 -344.7617)">
			<stop  offset="0" style="stop-color:#4B28DB"/>
			<stop  offset="1" style="stop-color:#3552FF"/>
		</linearGradient>
		<path fill="url(#SVGID_1_)" d="M50.151,35.319c-0.813,0.814-2.134,0.814-2.947,0c-0.813-0.814-0.813-2.134,0-2.948l15.658-15.658
			c0.813-0.813,2.135-0.813,2.946,0l15.657,15.658c0.813,0.814,0.813,2.134,0,2.948c-0.813,0.814-2.134,0.814-2.945,0L64.336,21.135
			L50.151,35.319L50.151,35.319z M28.201,66.493c-1.151,0-2.084-0.934-2.084-2.084c0-1.15,0.933-2.084,2.084-2.084
			c8.37,0,15.979,3.423,21.494,8.938c5.516,5.516,8.938,13.123,8.938,21.494v21.275c0,1.152-0.933,2.084-2.084,2.084
			c-1.149,0-2.085-0.932-2.085-2.084V92.756c0-7.219-2.955-13.786-7.716-18.546C41.988,69.45,35.42,66.493,28.201,66.493
			L28.201,66.493z M100.471,62.324c1.15,0,2.084,0.934,2.084,2.084c0,1.15-0.934,2.084-2.084,2.084
			c-7.221,0-13.785,2.956-18.548,7.718c-4.761,4.762-7.718,11.327-7.718,18.545v21.275c0,1.152-0.934,2.084-2.084,2.084
			c-1.148,0-2.084-0.932-2.084-2.084V92.756c0-8.371,3.423-15.979,8.938-21.494S92.101,62.324,100.471,62.324L100.471,62.324z
			 M66.42,114.031c0,1.151-0.934,2.084-2.084,2.084c-1.149,0-2.085-0.933-2.085-2.084V28.244c0-1.151,0.936-2.084,2.085-2.084
			c1.15,0,2.084,0.933,2.084,2.084V114.031L66.42,114.031z M35.246,78.592c0.813,0.814,0.813,2.134,0,2.948
			c-0.813,0.813-2.134,0.813-2.947,0L16.641,65.882c-0.813-0.814-0.813-2.134,0-2.948l15.656-15.658
			c0.813-0.814,2.135-0.814,2.947,0c0.813,0.814,0.813,2.134,0,2.948L21.062,64.408L35.246,78.592L35.246,78.592z M96.373,81.541
			c-0.813,0.813-2.135,0.813-2.947,0c-0.813-0.815-0.813-2.134,0-2.948l14.186-14.184L93.426,50.224
			c-0.813-0.814-0.813-2.134,0-2.948c0.813-0.814,2.136-0.814,2.947,0l15.657,15.658c0.814,0.814,0.814,2.134,0,2.948L96.373,81.541
			L96.373,81.541z"/>
	</g>
</g>
<g id="Layer_2">
	<g>
		<g>
			<g>
				
					<linearGradient id="SVGID_2_" gradientUnits="userSpaceOnUse" x1="-26.1921" y1="-326.6729" x2="75.8083" y2="-209.6722" gradientTransform="matrix(1 0 0 -1 0 -344.7617)">
					<stop  offset="0" style="stop-color:#0BB6BA"/>
					<stop  offset="1" style="stop-color:#14A98A"/>
				</linearGradient>
				<path fill="url(#SVGID_2_)" d="M-4.323-77.244c-0.566,0-1.133-0.217-1.563-0.647l-4.641-4.633
					c-2.605-2.604-2.605-6.847-0.004-9.451l51.813-51.865c1.553-1.561,3.775-2.252,5.939-1.85l33.773,6.233
					c2.771,0.512,4.938,2.728,5.388,5.515l5.274,32.958c0.338,2.109-0.358,4.27-1.871,5.781l-17.29,17.309
					c-0.862,0.867-2.266,0.861-3.127,0.002c-0.865-0.862-0.865-2.266,0-3.127l17.293-17.313c0.51-0.512,0.746-1.243,0.633-1.956
					l-5.276-32.957c-0.148-0.942-0.883-1.693-1.82-1.866l-33.779-6.232c-0.733-0.134-1.481,0.098-2.01,0.625L-7.401-88.853
					c-0.879,0.882-0.879,2.314,0.002,3.197l4.641,4.633c0.862,0.861,0.862,2.265,0.002,3.127
					C-3.19-77.461-3.756-77.244-4.323-77.244z"/>
			</g>
			<g>
				
					<linearGradient id="SVGID_3_" gradientUnits="userSpaceOnUse" x1="-23.8396" y1="-328.7148" x2="78.1561" y2="-211.7197" gradientTransform="matrix(1 0 0 -1 0 -344.7617)">
					<stop  offset="0" style="stop-color:#0BB6BA"/>
					<stop  offset="1" style="stop-color:#14A98A"/>
				</linearGradient>
				<path fill="url(#SVGID_3_)" d="M67.743-112.097c-3.249,0-5.917-1.702-7.409-3.869c-2.063-2.998-2.491-7.779,1.205-11.702
					c0.588-0.63,1.326-1.136,2.125-1.463c4.975-2.054,9.294,0.054,11.358,3.053c2.063,2.998,2.492,7.778-1.205,11.701
					c-0.59,0.627-1.322,1.133-2.123,1.462v0.001C70.314-112.347,68.986-112.097,67.743-112.097z M67.638-125.531
					c-0.696,0-1.465,0.147-2.294,0.489c-0.22,0.09-0.427,0.232-0.589,0.404c-2.141,2.271-1.807,4.674-0.78,6.163
					c1.022,1.487,3.146,2.661,6.034,1.469c0.217-0.088,0.43-0.236,0.588-0.404c2.143-2.272,1.809-4.672,0.78-6.163
					C70.648-124.632,69.361-125.531,67.638-125.531z"/>
			</g>
			<g>
				
					<linearGradient id="SVGID_4_" gradientUnits="userSpaceOnUse" x1="-20.8303" y1="-331.3481" x2="81.1716" y2="-214.3458" gradientTransform="matrix(1 0 0 -1 0 -344.7617)">
					<stop  offset="0" style="stop-color:#0BB6BA"/>
					<stop  offset="1" style="stop-color:#14A98A"/>
				</linearGradient>
				<path fill="url(#SVGID_4_)" d="M33.344-39.617c-0.586,0-1.146-0.231-1.563-0.646L5.184-66.833
					c-0.633-0.633-0.823-1.584-0.479-2.41c0.341-0.828,1.147-1.367,2.043-1.367h14.408v-31.103c0-1.221,0.987-2.211,2.211-2.211
					H43.27c1.225,0,2.211,0.99,2.211,2.211v31.103l14.408-0.002c0.896,0,1.698,0.539,2.043,1.364
					c0.344,0.826,0.151,1.777-0.479,2.41L34.91-40.269c-0.413,0.416-0.978,0.648-1.563,0.648
					C33.344-39.617,33.344-39.617,33.344-39.617z M12.091-66.188L33.344-44.96l21.211-21.23L43.27-66.188
					c-0.588,0-1.146-0.233-1.563-0.647c-0.415-0.416-0.647-0.979-0.647-1.563v-31.103H25.579v31.103
					c0,1.225-0.989,2.213-2.211,2.213H12.091V-66.188z"/>
			</g>
		</g>
	</g>
</g>
<g id="Layer_3" display="none">
	<g transform="matrix( 1, 0, 0, 1, 0,0) " display="inline">
		<g>
			<g>
				
					<linearGradient id="SVGID_5_" gradientUnits="userSpaceOnUse" x1="6.2058" y1="-458.6279" x2="122.5362" y2="-342.2975" gradientTransform="matrix(1 0 0 -1 0 -344.7617)">
					<stop  offset="0" style="stop-color:#4B28DB"/>
					<stop  offset="1" style="stop-color:#3552FF"/>
				</linearGradient>
				<path fill="url(#SVGID_5_)" d="M83.06,115.067H32.343c-0.173,0-0.344-0.022-0.511-0.065c-9.826-2.597-14.274-5.424-14.429-9.168
					l-0.002-0.401V28.351c0.068-1.774,0.556-3.331,1.446-4.706c0.126-0.201,0.279-0.483,0.45-0.789
					c0.951-1.708,2.256-4.046,4.489-4.354c0.091-0.012,0.184-0.019,0.272-0.019h59.879c1.104,0,2,0.896,2,2v5.102l5.653,4.865h4.161
					c1.104,0,2,0.896,2,2V56.7c0,1.104-0.896,2-2,2c-1.104,0-2-0.896-2-2V34.45H33.146c-0.133,0-0.267-0.013-0.396-0.04
					c-5.429-1.094-8.611-2.595-10.023-4.726c-0.71-1.07-0.955-2.295-0.71-3.544c-0.386,0.701-0.582,1.448-0.615,2.289l0.002,77.324
					c0.002,0.02,0.224,2.379,11.201,5.314H83.06c1.104,0,2,0.895,2,2C85.06,114.172,84.164,115.067,83.06,115.067z M33.348,30.45
					h52.114L83.2,28.503H27.323C28.36,29.088,30.176,29.797,33.348,30.45z M24.369,22.484c-0.474,0.342-1.237,1.715-1.574,2.32
					c-0.028,0.054-0.062,0.107-0.09,0.16c0.352-0.29,0.797-0.461,1.276-0.461h57.96v-2.019H24.369z M33.146,107.672
					c-1.104,0-2-0.896-2-2V41.05c0-1.104,0.896-2,2-2c1.104,0,2,0.896,2,2v64.622C35.146,106.774,34.251,107.672,33.146,107.672z"/>
			</g>
		</g>
	</g>
	<g display="inline">
		<g>
			
				<linearGradient id="SVGID_6_" gradientUnits="userSpaceOnUse" x1="34.6213" y1="-487.0469" x2="150.9532" y2="-370.7151" gradientTransform="matrix(1 0 0 -1 0 -344.7617)">
				<stop  offset="0" style="stop-color:#4B28DB"/>
				<stop  offset="1" style="stop-color:#3552FF"/>
			</linearGradient>
			<path fill="url(#SVGID_6_)" d="M65.934,65.5c0.414-0.414,0.978-0.648,1.563-0.648l37.596-0.019c0.896,0,1.701,0.539,2.045,1.365
				s0.151,1.779-0.479,2.41L96.469,78.797l21.99,21.992c0.863,0.862,0.864,2.265,0,3.129l-14.072,14.074
				c-0.864,0.862-2.266,0.862-3.129-0.002L79.268,96L69.08,106.188c-0.632,0.633-1.583,0.817-2.409,0.479
				c-0.825-0.339-1.363-1.148-1.362-2.043l-0.021-37.559c-0.002-0.584,0.229-1.148,0.646-1.563C65.934,65.5,65.934,65.5,65.934,65.5
				z M99.75,69.259l-30.039,0.016l0.017,30.013l7.979-7.979c0.415-0.414,0.979-0.646,1.563-0.646s1.146,0.229,1.563,0.646
				l21.993,21.993l10.945-10.946L91.777,80.36c-0.862-0.863-0.864-2.264,0-3.129L99.75,69.259z"/>
		</g>
	</g>
</g>
<g id="Layer_4" display="none">
	<g display="inline">
		
			<linearGradient id="SVGID_7_" gradientUnits="userSpaceOnUse" x1="17.8743" y1="-409.2905" x2="115.9167" y2="-409.2905" gradientTransform="matrix(1 0 0 -1 0 -344.7617)">
			<stop  offset="0" style="stop-color:#4B28DB"/>
			<stop  offset="1" style="stop-color:#3552FF"/>
		</linearGradient>
		<path fill="url(#SVGID_7_)" d="M65.247,104.87c-5.104-5.104-8.172-11.879-8.637-19.075c-0.082-1.286,0.894-2.394,2.179-2.478
			c1.285-0.082,2.396,0.893,2.479,2.179c0.391,6.063,2.976,11.772,7.275,16.076c9.757,9.757,25.638,9.757,35.395-0.001
			c9.758-9.758,9.758-25.635,0-35.392C93.789,56.032,81.803,56.101,68.31,66.384l-0.029,0.022c-7.37,5.44-14.737,8.231-21.895,8.296
			c-7.333,0.063-14.19-2.885-19.83-8.524c-11.576-11.577-11.576-30.414,0-41.989c11.575-11.577,30.413-11.577,41.988-0.001
			c4.208,4.208,7.025,9.508,8.153,15.327c0.243,1.265-0.583,2.488-1.848,2.733c-1.267,0.246-2.488-0.583-2.732-1.846
			c-0.948-4.903-3.326-9.368-6.873-12.914c-9.759-9.757-25.635-9.757-35.393-0.001c-9.757,9.759-9.757,25.636,0,35.392
			c9.679,9.679,22.335,9.604,35.644-0.215c7.691-5.859,15.202-8.788,22.318-8.705c7.05,0.082,13.583,3.083,19.421,8.922
			c11.576,11.576,11.576,30.414,0,41.989C95.661,116.444,76.823,116.446,65.247,104.87z"/>
	</g>
</g>
<g id="Layer_5" display="none">
	<g display="inline">
		
			<linearGradient id="SVGID_8_" gradientUnits="userSpaceOnUse" x1="26.8162" y1="-416.9688" x2="102.9519" y2="-416.9688" gradientTransform="matrix(1 0 0 -1 0 -344.7617)">
			<stop  offset="0" style="stop-color:#4B28DB"/>
			<stop  offset="1" style="stop-color:#3552FF"/>
		</linearGradient>
		<path fill="url(#SVGID_8_)" d="M101.352,15.373H28.417c-0.884,0-1.601,0.715-1.601,1.6v92.447c0,0.884,0.717,1.601,1.601,1.601
			h43.425v16.422c0,0.709,0.47,1.334,1.146,1.533c0.682,0.199,1.414-0.068,1.799-0.668l4.84-7.511l4.84,7.511
			c0.303,0.465,0.813,0.732,1.346,0.732c0.148,0,0.302-0.021,0.451-0.064c0.681-0.199,1.146-0.824,1.146-1.533v-16.422h13.941
			c0.884,0,1.601-0.719,1.601-1.602V16.972C102.951,16.088,102.235,15.373,101.352,15.373z M79.626,100.677
			c-6.112,0-11.091-4.976-11.091-11.091c0-6.114,4.979-11.089,11.091-11.089c6.114,0,11.089,4.975,11.089,11.089
			C90.715,95.701,85.74,100.677,79.626,100.677z M80.97,116.976c-0.296-0.455-0.802-0.729-1.346-0.729s-1.051,0.273-1.346,0.729
			l-3.239,5.029v-18.889c1.438,0.488,2.979,0.759,4.585,0.759c1.604,0,3.146-0.271,4.584-0.759v18.889L80.97,116.976z
			 M99.752,107.819H87.409v-6.26c3.911-2.556,6.505-6.968,6.505-11.977c0-7.878-6.41-14.288-14.288-14.288
			c-7.88,0-14.289,6.41-14.289,14.288c0,5.009,2.595,9.421,6.505,11.977v6.26H30.016V18.571h69.734L99.752,107.819L99.752,107.819z"
			/>
		
			<linearGradient id="SVGID_9_" gradientUnits="userSpaceOnUse" x1="34.7058" y1="-407.7979" x2="95.0632" y2="-407.7979" gradientTransform="matrix(1 0 0 -1 0 -344.7617)">
			<stop  offset="0" style="stop-color:#4B28DB"/>
			<stop  offset="1" style="stop-color:#3552FF"/>
		</linearGradient>
		<path fill="url(#SVGID_9_)" d="M36.307,102.703h21.219c0.885,0,1.6-0.718,1.6-1.601c0-0.887-0.715-1.603-1.6-1.603h-19.62V26.568
			H91.86V69.67c0,0.884,0.717,1.599,1.602,1.599c0.886,0,1.602-0.715,1.602-1.599V24.969c0-0.883-0.716-1.6-1.602-1.6H36.307
			c-0.885,0-1.602,0.717-1.602,1.6v76.134C34.708,101.985,35.424,102.703,36.307,102.703z"/>
		
			<linearGradient id="SVGID_10_" gradientUnits="userSpaceOnUse" x1="53.9001" y1="-379.9668" x2="75.8689" y2="-379.9668" gradientTransform="matrix(1 0 0 -1 0 -344.7617)">
			<stop  offset="0" style="stop-color:#4B28DB"/>
			<stop  offset="1" style="stop-color:#3552FF"/>
		</linearGradient>
		<path fill="url(#SVGID_10_)" d="M74.268,36.804c0.883,0,1.601-0.715,1.601-1.598c0-0.884-0.718-1.6-1.601-1.6H55.5
			c-0.884,0-1.6,0.715-1.6,1.6c0,0.883,0.716,1.598,1.6,1.598H74.268z"/>
		
			<linearGradient id="SVGID_11_" gradientUnits="userSpaceOnUse" x1="42.9167" y1="-391.0562" x2="86.8503" y2="-391.0562" gradientTransform="matrix(1 0 0 -1 0 -344.7617)">
			<stop  offset="0" style="stop-color:#4B28DB"/>
			<stop  offset="1" style="stop-color:#3552FF"/>
		</linearGradient>
		<path fill="url(#SVGID_11_)" d="M85.251,44.695H44.518c-0.885,0-1.602,0.716-1.602,1.599s0.716,1.6,1.602,1.6H85.25
			c0.883,0,1.601-0.717,1.601-1.6S86.134,44.695,85.251,44.695z"/>
		
			<linearGradient id="SVGID_12_" gradientUnits="userSpaceOnUse" x1="42.9167" y1="-434.3477" x2="58.7009" y2="-434.3477" gradientTransform="matrix(1 0 0 -1 0 -344.7617)">
			<stop  offset="0" style="stop-color:#4B28DB"/>
			<stop  offset="1" style="stop-color:#3552FF"/>
		</linearGradient>
		<path fill="url(#SVGID_12_)" d="M44.518,87.985c-0.885,0-1.602,0.717-1.602,1.601c0,0.886,0.716,1.601,1.602,1.601h12.583
			c0.884,0,1.6-0.715,1.6-1.601c0-0.884-0.716-1.601-1.6-1.601H44.518z"/>
	</g>
</g>
<g id="Layer_6" display="none">
	
		<linearGradient id="SVGID_13_" gradientUnits="userSpaceOnUse" x1="10.5017" y1="-417.3442" x2="118.072" y2="-417.3442" gradientTransform="matrix(1 0 0 -1 0 -344.7617)">
		<stop  offset="0" style="stop-color:#4B28DB"/>
		<stop  offset="1" style="stop-color:#3552FF"/>
	</linearGradient>
	<path display="inline" fill="url(#SVGID_13_)" d="M30.69,122.707v-21.922c0-0.677-0.527-1.206-1.205-1.206h-9.088
		c-5.455,0-9.896-4.438-9.896-9.895V32.352c0-5.455,4.438-9.894,9.896-9.894h87.782c5.453,0,9.893,4.438,9.893,9.894V89.7
		c0,5.456-4.438,9.895-9.893,9.895H52.32c-0.344,0-0.667,0.141-0.89,0.385L30.69,122.707z M20.397,25.835
		c-3.593,0-6.519,2.924-6.519,6.517v57.334c0,3.592,2.926,6.517,6.519,6.517h9.088c2.526,0,4.582,2.056,4.582,4.583v13.212
		l14.864-16.289c0.854-0.946,2.093-1.491,3.389-1.491h55.859c3.593,0,6.516-2.924,6.516-6.518V32.352
		c0-3.593-2.923-6.517-6.516-6.517H20.397z"/>
	
		<linearGradient id="SVGID_14_" gradientUnits="userSpaceOnUse" x1="31.4167" y1="-385.3213" x2="99.1375" y2="-385.3213" gradientTransform="matrix(1 0 0 -1 0 -344.7617)">
		<stop  offset="0" style="stop-color:#4B28DB"/>
		<stop  offset="1" style="stop-color:#3552FF"/>
	</linearGradient>
	<path display="inline" fill="url(#SVGID_14_)" d="M96.672,38.094H33.884c-1.362,0-2.467,1.104-2.467,2.465
		c0,1.362,1.104,2.467,2.467,2.467h62.788c1.361,0,2.466-1.104,2.466-2.467C99.136,39.197,98.033,38.094,96.672,38.094z"/>
	
		<linearGradient id="SVGID_15_" gradientUnits="userSpaceOnUse" x1="31.4167" y1="-404.8486" x2="99.1375" y2="-404.8486" gradientTransform="matrix(1 0 0 -1 0 -344.7617)">
		<stop  offset="0" style="stop-color:#4B28DB"/>
		<stop  offset="1" style="stop-color:#3552FF"/>
	</linearGradient>
	<path display="inline" fill="url(#SVGID_15_)" d="M96.671,57.62H33.882c-1.36,0-2.465,1.105-2.465,2.466
		c0,1.361,1.104,2.468,2.465,2.468h62.789c1.361,0,2.467-1.106,2.467-2.468C99.136,58.726,98.032,57.62,96.671,57.62z"/>
	
		<linearGradient id="SVGID_16_" gradientUnits="userSpaceOnUse" x1="31.4167" y1="-424.3755" x2="99.1375" y2="-424.3755" gradientTransform="matrix(1 0 0 -1 0 -344.7617)">
		<stop  offset="0" style="stop-color:#4B28DB"/>
		<stop  offset="1" style="stop-color:#3552FF"/>
	</linearGradient>
	<path display="inline" fill="url(#SVGID_16_)" d="M96.672,77.147H33.884c-1.362,0-2.467,1.104-2.467,2.465
		c0,1.363,1.104,2.468,2.467,2.468h62.788c1.361,0,2.466-1.104,2.466-2.468C99.136,78.252,98.033,77.147,96.672,77.147z"/>
</g>
<g id="Layer_1_2_">
	<g>
		<g>
			
				<linearGradient id="SVGID_17_" gradientUnits="userSpaceOnUse" x1="-219.636" y1="33.2358" x2="-141.6361" y2="135.2356" gradientTransform="matrix(1 0 0 -1 0 133.6191)">
				<stop  offset="0" style="stop-color:#0BB6BA"/>
				<stop  offset="1" style="stop-color:#14A98A"/>
			</linearGradient>
			<path fill="url(#SVGID_17_)" d="M-197.63,23.968c-0.813,0.814-2.134,0.814-2.947,0c-0.813-0.814-0.813-2.134,0-2.948
				l15.658-15.658c0.813-0.813,2.135-0.813,2.946,0l15.658,15.658c0.813,0.814,0.813,2.134,0,2.948
				c-0.813,0.814-2.135,0.814-2.946,0l-14.185-14.184L-197.63,23.968L-197.63,23.968z M-219.58,55.143
				c-1.15,0-2.084-0.934-2.084-2.084s0.934-2.084,2.084-2.084c8.37,0,15.979,3.423,21.494,8.938
				c5.517,5.516,8.938,13.123,8.938,21.494v21.275c0,1.151-0.934,2.084-2.084,2.084s-2.085-0.933-2.085-2.084V81.405
				c0-7.219-2.955-13.786-7.717-18.546C-205.793,58.1-212.362,55.143-219.58,55.143L-219.58,55.143z M-147.31,50.974
				c1.15,0,2.084,0.934,2.084,2.084s-0.934,2.084-2.084,2.084c-7.22,0-13.785,2.956-18.547,7.718
				c-4.762,4.762-7.719,11.327-7.719,18.545v21.275c0,1.151-0.934,2.084-2.084,2.084c-1.148,0-2.084-0.933-2.084-2.084V81.405
				c0-8.371,3.424-15.979,8.938-21.494C-163.289,54.396-155.68,50.974-147.31,50.974L-147.31,50.974z M-181.362,102.681
				c0,1.151-0.935,2.084-2.084,2.084c-1.15,0-2.086-0.933-2.086-2.084V16.894c0-1.151,0.936-2.084,2.086-2.084
				c1.149,0,2.084,0.933,2.084,2.084V102.681L-181.362,102.681z M-212.535,67.241c0.813,0.814,0.813,2.134,0,2.947
				c-0.813,0.813-2.134,0.813-2.946,0l-15.657-15.657c-0.813-0.814-0.813-2.134,0-2.948l15.657-15.658
				c0.813-0.814,2.134-0.814,2.946,0c0.813,0.814,0.813,2.134,0,2.948l-14.184,14.184L-212.535,67.241L-212.535,67.241z
				 M-151.408,70.19c-0.813,0.813-2.135,0.813-2.946,0c-0.813-0.815-0.813-2.135,0-2.948l14.185-14.184l-14.185-14.185
				c-0.813-0.814-0.813-2.134,0-2.948c0.813-0.814,2.135-0.814,2.946,0l15.657,15.658c0.814,0.814,0.814,2.134,0,2.948
				L-151.408,70.19L-151.408,70.19z"/>
		</g>
	</g>
</g>
<g>
	<linearGradient id="SVGID_18_" gradientUnits="userSpaceOnUse" x1="141.4939" y1="146.2705" x2="14.4926" y2="36.2694">
		<stop  offset="0" style="stop-color:#0BB6BA"/>
		<stop  offset="1" style="stop-color:#14A98A"/>
	</linearGradient>
	<path fill="url(#SVGID_18_)" d="M19.01,109.343c-2.282,0-4.133-1.851-4.133-4.133V22.865c0-2.282,1.851-4.132,4.133-4.132h55.088
		c2.282,0,4.132,1.85,4.132,4.132v13.088c0,1.222,1.146,2.113,2.333,1.824c0.013-0.003,0.025-0.006,0.038-0.01
		c0.847-0.205,1.446-0.958,1.446-1.828V22.865c0-4.39-3.56-7.948-7.949-7.948H19.01c-4.391,0-7.949,3.559-7.949,7.948v82.345
		c0,4.391,3.559,7.949,7.949,7.949h39.549c1.039,0,1.881-0.844,1.88-1.883c0-0.019,0-0.037,0-0.057
		c-0.001-1.038-0.843-1.877-1.88-1.877H19.01z"/>
	<linearGradient id="SVGID_19_" gradientUnits="userSpaceOnUse" x1="154.2615" y1="131.5273" x2="27.2615" y2="21.5274">
		<stop  offset="0" style="stop-color:#0BB6BA"/>
		<stop  offset="1" style="stop-color:#14A98A"/>
	</linearGradient>
	<path fill="url(#SVGID_19_)" d="M70.276,29.852c0-1.054-0.854-1.908-1.909-1.908H24.739c-1.054,0-1.908,0.854-1.908,1.908v16.771
		c0,1.054,0.854,1.908,1.908,1.908h43.628c1.055,0,1.909-0.854,1.909-1.908V29.852z M66.459,44.715H26.647V31.76h39.812V44.715z"/>
	<linearGradient id="SVGID_20_" gradientUnits="userSpaceOnUse" x1="136.2683" y1="152.3379" x2="9.2473" y2="42.3197">
		<stop  offset="0" style="stop-color:#0BB6BA"/>
		<stop  offset="1" style="stop-color:#14A98A"/>
	</linearGradient>
	<path fill="url(#SVGID_20_)" d="M30.332,67.02h9.543c1.273,0,2.306-1.032,2.306-2.306c0-1.273-1.032-2.305-2.306-2.305h-9.543
		c-1.273,0-2.306,1.032-2.306,2.305C28.026,65.987,29.058,67.02,30.332,67.02z"/>
	<linearGradient id="SVGID_21_" gradientUnits="userSpaceOnUse" x1="146.0593" y1="140.9834" x2="19.0698" y2="30.9925">
		<stop  offset="0" style="stop-color:#0BB6BA"/>
		<stop  offset="1" style="stop-color:#14A98A"/>
	</linearGradient>
	<path fill="url(#SVGID_21_)" d="M53.232,67.02h9.542c1.273,0,2.306-1.032,2.306-2.306c0-1.273-1.032-2.305-2.306-2.305h-9.542
		c-1.273,0-2.306,1.032-2.306,2.305C50.927,65.987,51.959,67.02,53.232,67.02z"/>
	<linearGradient id="SVGID_22_" gradientUnits="userSpaceOnUse" x1="128.8416" y1="160.877" x2="1.8415" y2="50.877">
		<stop  offset="0" style="stop-color:#0BB6BA"/>
		<stop  offset="1" style="stop-color:#14A98A"/>
	</linearGradient>
	<path fill="url(#SVGID_22_)" d="M30.332,81.992h9.543c1.273,0,2.306-1.032,2.306-2.306c0-1.272-1.032-2.305-2.306-2.305h-9.543
		c-1.273,0-2.306,1.032-2.306,2.305C28.026,80.96,29.058,81.992,30.332,81.992z"/>
	<linearGradient id="SVGID_23_" gradientUnits="userSpaceOnUse" x1="138.6433" y1="149.5332" x2="11.6643" y2="39.5514">
		<stop  offset="0" style="stop-color:#0BB6BA"/>
		<stop  offset="1" style="stop-color:#14A98A"/>
	</linearGradient>
	<path fill="url(#SVGID_23_)" d="M53.232,81.992h9.542c1.273,0,2.306-1.032,2.306-2.306c0-1.272-1.032-2.305-2.306-2.305h-9.542
		c-1.273,0-2.306,1.032-2.306,2.305C50.927,80.96,51.959,81.992,53.232,81.992z"/>
	<linearGradient id="SVGID_24_" gradientUnits="userSpaceOnUse" x1="121.4314" y1="169.4316" x2="-5.5686" y2="59.4317">
		<stop  offset="0" style="stop-color:#0BB6BA"/>
		<stop  offset="1" style="stop-color:#14A98A"/>
	</linearGradient>
	<path fill="url(#SVGID_24_)" d="M30.332,96.965h9.543c1.273,0,2.306-1.032,2.306-2.306c0-1.272-1.032-2.305-2.306-2.305h-9.543
		c-1.273,0-2.306,1.032-2.306,2.305C28.026,95.933,29.058,96.965,30.332,96.965z"/>
	<linearGradient id="SVGID_25_" gradientUnits="userSpaceOnUse" x1="131.2468" y1="158.0996" x2="4.2468" y2="48.0996">
		<stop  offset="0" style="stop-color:#0BB6BA"/>
		<stop  offset="1" style="stop-color:#14A98A"/>
	</linearGradient>
	<path fill="url(#SVGID_25_)" d="M53.232,96.965h9.542c1.273,0,2.306-1.032,2.306-2.306c0-1.272-1.032-2.305-2.306-2.305h-9.542
		c-1.273,0-2.306,1.032-2.306,2.305C50.927,95.933,51.959,96.965,53.232,96.965z"/>
	<linearGradient id="SVGID_26_" gradientUnits="userSpaceOnUse" x1="153.739" y1="132.1328" x2="26.7374" y2="22.1315">
		<stop  offset="0" style="stop-color:#0BB6BA"/>
		<stop  offset="1" style="stop-color:#14A98A"/>
	</linearGradient>
	<path fill="url(#SVGID_26_)" d="M70.423,54.616c-0.146,0.606-0.155,7.952-0.145,20.695v0.064
		c-0.013,7.724,0.019,19.796,0.019,35.356c0,0.926,0.283,2.02,1.192,3.148c4.274,5.31,18.315,6.366,18.315,6.366
		c15.432,1.484,34.363-1.827,34.363-9.515V99.681v-44.01C124.168,42.941,73.32,42.541,70.423,54.616z M73.964,55.46
		c0.061-0.238,0.223-0.491,0.378-0.678c0.906-1.2,3.26-2.2,4.667-2.716c12.733-4.68,36.348-2.556,40.959,2.537
		c0.741,0.796,1.009,1.598-1.055,3.01c-0.903,0.607-2.059,1.162-3.411,1.654c-2.283,0.833-5.132,1.494-8.281,1.946
		c-6.245,0.896-13.678,0.98-20.258-0.013c-2.875-0.434-5.588-1.073-7.967-1.939c-0.259-0.096-0.515-0.193-0.767-0.293
		C75.254,57.784,73.696,56.465,73.964,55.46z M73.934,60.897c0.159,0.1,0.323,0.197,0.491,0.293c1.292,0.74,2.835,1.383,4.563,1.934
		c10.075,3.206,26.474,3.2,36.528-0.014c1.716-0.548,3.246-1.189,4.529-1.925c0.165-0.093,0.326-0.19,0.483-0.288v5.62
		c0,0.052-0.006,0.107-0.019,0.163c-0.061,0.301-0.284,0.649-0.646,1.01c-5.349,5.308-29.346,7.084-41.636,2.129
		c-1.146-0.461-2.66-1.188-3.56-2.038c-0.001-0.001-0.002-0.002-0.002-0.002c-0.314-0.296-0.673-0.721-0.727-1.154
		c0-0.001,0-0.001,0-0.002c-0.005-0.035-0.007-0.07-0.007-0.105V60.897z M73.934,71.743c5.593,3.498,15.781,4.555,22.353,4.631
		c0,0.005,1.891,0.01,1.891,0c6.634-0.076,16.745-1.139,22.353-4.631v0.205c0.001,3.203,0.013,4.628,0,5.309
		c-0.005,0.279-0.015,0.433-0.031,0.531c-0.021,0.125-0.052,0.165-0.099,0.258c-0.265,0.529-0.812,1.028-1.492,1.478
		c-0.006,0.003-0.01,0.007-0.014,0.01c-1.458,0.962-3.52,1.708-4.737,2.083c-0.929,0.289-1.925,0.553-2.974,0.787
		c-0.081,0.019-0.161,0.035-0.244,0.053c-5.961,1.295-13.59,1.688-20.563,1.041c-0.105-0.01-0.211-0.02-0.317-0.03
		c-4.314-0.422-8.363-1.245-11.592-2.502c-0.08-0.031-0.158-0.063-0.237-0.094c-0.042-0.017-0.085-0.035-0.13-0.052
		c-2.538-1.037-3.982-2.166-4.147-3.074c-0.006-0.029-0.011-0.057-0.014-0.085c-0.002-0.03-0.004-0.062-0.004-0.092V71.743z
		 M73.934,82.797c1.223,0.766,2.668,1.413,4.244,1.958c0.112,0.039,0.226,0.077,0.34,0.115c0.113,0.039,0.229,0.076,0.344,0.113
		c0.114,0.036,0.229,0.072,0.345,0.107c0.002,0,0.003,0,0.005,0.003c0.104,0.031,0.207,0.062,0.311,0.093
		c0.13,0.04,0.262,0.078,0.394,0.116c0.217,0.063,0.437,0.123,0.658,0.183c0.261,0.069,0.524,0.137,0.789,0.202
		c0.123,0.03,0.245,0.061,0.368,0.089c4.658,1.108,9.815,1.551,13.706,1.639V87.41c0.074,0.002,0.149,0.003,0.224,0.005
		c0.074,0.001,0.148,0.002,0.222,0.004c0.893,0.014,1.792,0.014,2.693,0c0.09-0.002,0.18-0.004,0.27-0.006
		c0.061,0,0.121-0.002,0.182-0.003v0.005c6.377-0.14,16.062-1.23,21.503-4.618v5.829c0,0.079-0.013,0.16-0.036,0.242v0.002
		c-0.016,0.054-0.035,0.107-0.06,0.162c-0.001,0.002-0.003,0.004-0.004,0.008c-0.032,0.07-0.071,0.143-0.116,0.213
		c-0.01,0.018-0.021,0.035-0.034,0.053c-0.007,0.012-0.015,0.021-0.021,0.031c-0.312,0.448-0.827,0.863-1.193,1.123
		c-0.125,0.09-0.255,0.178-0.389,0.264c-2.679,1.715-7.038,2.803-11.319,3.426c-3.299,0.482-6.552,0.688-8.954,0.695H96.15
		c-3.892-0.055-7.316-0.383-10.241-0.877c-0.078-0.014-0.157-0.025-0.235-0.039c-0.152-0.027-0.303-0.055-0.452-0.082
		c-0.12-0.021-0.239-0.044-0.359-0.066c-0.122-0.023-0.245-0.047-0.366-0.07c-0.242-0.048-0.483-0.098-0.722-0.148
		c-0.076-0.016-0.152-0.033-0.228-0.049c-0.221-0.049-0.441-0.098-0.659-0.15c-0.074-0.017-0.149-0.035-0.223-0.053
		c-0.072-0.018-0.144-0.034-0.215-0.053c-0.07-0.018-0.141-0.035-0.211-0.053c-3.345-0.842-5.729-1.896-7.062-2.888
		c-0.024-0.017-0.047-0.034-0.07-0.054c-0.024-0.018-0.047-0.036-0.069-0.053c-0.044-0.033-0.086-0.066-0.126-0.101
		c-0.055-0.046-0.107-0.09-0.156-0.134c-0.02-0.016-0.037-0.033-0.056-0.051c-0.055-0.05-0.106-0.1-0.155-0.15
		c-0.029-0.029-0.058-0.059-0.085-0.088c0-0.001-0.001-0.002-0.001-0.002c-0.037-0.04-0.071-0.08-0.104-0.119
		c-0.052-0.063-0.099-0.123-0.14-0.184c-0.023-0.033-0.046-0.066-0.065-0.1c-0.062-0.099-0.109-0.196-0.145-0.291
		c-0.012-0.032-0.021-0.063-0.03-0.095c-0.005-0.017-0.01-0.033-0.014-0.049c-0.003-0.015-0.006-0.03-0.008-0.044
		c-0.004-0.015-0.006-0.031-0.009-0.046c-0.003-0.019-0.005-0.038-0.007-0.058c-0.001-0.012-0.002-0.022-0.002-0.033
		c-0.001-0.016-0.001-0.03-0.001-0.045V82.797z M73.934,93.852c0.253,0.157,0.516,0.31,0.789,0.458
		c0.091,0.049,0.183,0.099,0.274,0.146c0.093,0.049,0.187,0.098,0.281,0.145c0.094,0.047,0.188,0.094,0.286,0.141
		c0.095,0.047,0.192,0.092,0.29,0.137c0.075,0.035,0.15,0.069,0.227,0.104c0.046,0.021,0.093,0.041,0.14,0.062
		c0.077,0.034,0.154,0.067,0.231,0.101c0.101,0.043,0.203,0.086,0.307,0.128c0.103,0.042,0.206,0.085,0.31,0.126
		c0.104,0.04,0.209,0.082,0.314,0.121c4.541,1.733,10.737,2.707,17.139,2.921c0.104,0.004,0.208,0.007,0.31,0.01
		c0.205,0.007,0.407,0.013,0.605,0.017c1.194,0.025,2.396,0.025,3.59,0c0.1-0.002,0.2-0.006,0.301-0.007
		c0.211-0.006,0.427-0.013,0.645-0.021c8.214-0.277,16.09-1.805,20.558-4.587v5.829c0,0.037-0.003,0.075-0.009,0.114
		c-0.009,0.057-0.022,0.113-0.042,0.17c-0.004,0.013-0.009,0.027-0.014,0.04c-0.013,0.034-0.026,0.065-0.042,0.1
		c-0.016,0.033-0.032,0.067-0.051,0.102c-0.022,0.042-0.048,0.082-0.074,0.123c-0.025,0.04-0.054,0.082-0.085,0.123
		c-0.213,0.292-0.531,0.602-0.937,0.91c-0.438,0.33-0.946,0.646-1.519,0.943c-0.067,0.036-0.137,0.071-0.205,0.105
		c-0.048,0.024-0.095,0.048-0.143,0.07c-0.106,0.053-0.214,0.104-0.323,0.154c-0.064,0.03-0.13,0.061-0.197,0.091
		c-0.426,0.189-0.878,0.373-1.354,0.548c-0.143,0.053-0.288,0.104-0.434,0.153c-0.104,0.036-0.208,0.071-0.313,0.106
		c-0.145,0.048-0.288,0.096-0.435,0.143c-0.004,0-0.009,0.001-0.012,0.003c-0.103,0.031-0.206,0.064-0.311,0.096
		c-0.003,0.001-0.005,0.001-0.008,0.003c-0.103,0.029-0.206,0.062-0.311,0.091c-0.008,0.003-0.016,0.005-0.023,0.008
		c-0.099,0.028-0.199,0.057-0.298,0.085c-0.127,0.035-0.254,0.07-0.382,0.104c-0.228,0.062-0.459,0.121-0.693,0.18
		c-0.233,0.058-0.469,0.114-0.705,0.169c-0.118,0.027-0.238,0.055-0.357,0.08c-0.644,0.145-1.311,0.277-1.996,0.398
		c-0.061,0.013-0.121,0.022-0.183,0.032c-0.123,0.021-0.244,0.043-0.367,0.063c-0.218,0.037-0.437,0.072-0.658,0.107
		c-0.277,0.044-0.555,0.085-0.831,0.124c-2.72,0.386-5.665,0.615-8.662,0.672h-0.019c-6.494,0.123-13.241-0.568-18.512-2.257
		c-1.445-0.463-2.694-0.982-3.686-1.533c-0.038-0.021-0.076-0.042-0.115-0.063c-0.389-0.222-0.737-0.448-1.039-0.677
		c-0.74-0.562-1.188-1.132-1.247-1.582c-0.004-0.034-0.006-0.068-0.006-0.103V93.852z M120.53,110.731
		c0,0.465-0.457,1.078-1.253,1.682c-6.197,4.692-26.823,6.255-39.25,2.274c-2.082-0.666-3.755-1.453-4.84-2.274
		c-0.796-0.604-1.253-1.217-1.253-1.682v-5.824c0.526,0.328,1.093,0.632,1.687,0.912c0.004,0.002,0.01,0.005,0.014,0.008
		c0.055,0.024,0.108,0.05,0.163,0.075c0.117,0.055,0.236,0.108,0.355,0.162c2.697,1.188,5.865,1.951,8.471,2.426
		c0.074,0.015,0.148,0.027,0.223,0.04c2.842,0.506,4.958,0.666,4.958,0.666c3.973,0.382,8.177,0.444,12.23,0.197
		c0.01,0,0.02-0.001,0.03-0.002c0.382-0.023,0.762-0.048,1.141-0.077c0.14-0.011,0.28-0.021,0.42-0.033
		c0.14-0.011,0.278-0.023,0.417-0.035c0.011,0,0.02-0.001,0.028-0.002c0.13-0.011,0.26-0.023,0.389-0.035
		c0.074-0.006,0.149-0.013,0.224-0.021c5.187-0.5,9.972-1.528,13.502-3.067c0.133-0.059,0.265-0.117,0.395-0.177
		c0.207-0.096,0.409-0.192,0.606-0.292c0.058-0.027,0.114-0.057,0.171-0.086c0.07-0.037,0.141-0.072,0.208-0.108
		c0.081-0.044,0.16-0.086,0.239-0.13c0.08-0.044,0.158-0.088,0.237-0.133c0.102-0.058,0.202-0.117,0.301-0.177
		c0.059-0.035,0.116-0.07,0.173-0.105c0.004-0.003,0.01-0.006,0.015-0.01V110.731z"/>
</g>
</svg>
