<?xml version="1.0" encoding="utf-8"?>
<!-- Generator: Adobe Illustrator 16.0.3, SVG Export Plug-In . SVG Version: 6.00 Build 0)  -->
<!DOCTYPE svg PUBLIC "-//W3C//DTD SVG 1.1//EN" "http://www.w3.org/Graphics/SVG/1.1/DTD/svg11.dtd">
<svg version="1.1" xmlns="http://www.w3.org/2000/svg" xmlns:xlink="http://www.w3.org/1999/xlink" x="0px" y="0px" width="72px"
	 height="72px" viewBox="0 0 72 72" enable-background="new 0 0 72 72" xml:space="preserve">
<g id="Layer_1">
</g>
<g id="Step_1">
</g>
<g id="Step_2">
	<path fill-rule="evenodd" clip-rule="evenodd" fill="#12A98A" d="M14.856,27.816h8.545c0.243,0,0.446,0.198,0.446,0.441v6.182
		c0,0.244-0.203,0.441-0.446,0.441h-8.545c-0.244,0-0.447-0.198-0.447-0.441v-6.182C14.409,28.014,14.612,27.816,14.856,27.816
		L14.856,27.816z"/>
	<path fill-rule="evenodd" clip-rule="evenodd" fill="#EBEBEB" d="M62.393,26.929h-4.455c-0.734,0-1.4-0.297-1.884-0.776
		c-0.484-0.487-0.784-1.158-0.784-1.888v-4.469H37.291V53.37H60.61c0.49,0,0.937-0.206,1.256-0.525h0.004
		c0.319-0.32,0.522-0.769,0.522-1.255V26.929z"/>
	<path fill-rule="evenodd" clip-rule="evenodd" fill="#EBEBEB" d="M13.085,53.37H36.4V19.795H13.085c-0.49,0-0.936,0.198-1.26,0.518
		l0,0c-0.323,0.328-0.521,0.77-0.521,1.264v30.012c0,0.487,0.198,0.935,0.521,1.255C12.149,53.164,12.595,53.37,13.085,53.37
		L13.085,53.37z M14.856,27.843h8.545c0.243,0,0.446,0.198,0.446,0.441v6.182c0,0.244-0.203,0.441-0.446,0.441h-8.545
		c-0.249,0-0.447-0.198-0.447-0.441v-6.182C14.409,28.041,14.607,27.843,14.856,27.843z"/>
	<path fill-rule="evenodd" clip-rule="evenodd" fill="#EBEBEB" d="M56.784,19.795l5.608,5.611v-3.829
		c0-0.495-0.203-0.937-0.526-1.264c-0.319-0.319-0.766-0.518-1.256-0.518H56.784z"/>
	<path fill-rule="evenodd" clip-rule="evenodd" fill="#B39459" d="M14.409,34.466c0,0.244,0.203,0.441,0.447,0.441h8.545
		c0.243,0,0.446-0.198,0.446-0.441v-2.934l-2.477-1.391c-0.17-0.1-0.38-0.076-0.521,0.046l-2.714,2.04l-2.836-1.111l-0.892-0.396
		V34.466z M36.85,54.26L36.85,54.26 M37.291,53.37"/>
	<path fill-rule="evenodd" clip-rule="evenodd" d="M56.784,19.795l5.608,5.611v-3.829c0-0.495-0.197-0.937-0.522-1.256
		c-0.323-0.327-0.765-0.525-1.255-0.525H56.784L56.784,19.795z M58.841,33.667c0.247,0,0.448,0.198,0.448,0.441
		c0,0.244-0.201,0.449-0.448,0.449H40.842c-0.242,0-0.442-0.205-0.442-0.449c0-0.244,0.2-0.441,0.442-0.441H58.841L58.841,33.667z
		 M58.841,28.726c0.247,0,0.448,0.198,0.448,0.441s-0.201,0.442-0.448,0.442H40.842c-0.242,0-0.442-0.198-0.442-0.442
		s0.2-0.441,0.442-0.441H58.841L58.841,28.726z M58.841,43.557c0.247,0,0.448,0.197,0.448,0.441c0,0.244-0.201,0.441-0.448,0.441
		H40.842c-0.242,0-0.442-0.198-0.442-0.441c0-0.244,0.2-0.441,0.442-0.441H58.841L58.841,43.557z M58.841,38.607
		c0.247,0,0.448,0.199,0.448,0.45c0,0.244-0.201,0.441-0.448,0.441H40.842c-0.242,0-0.442-0.198-0.442-0.441
		c0-0.251,0.2-0.45,0.442-0.45H58.841L58.841,38.607z M26.214,34.558c-0.243,0-0.445-0.205-0.445-0.449
		c0-0.244,0.202-0.441,0.445-0.441h6.64c0.247,0,0.444,0.198,0.444,0.441c0,0.244-0.197,0.449-0.444,0.449H26.214L26.214,34.558z
		 M26.214,29.609c-0.243,0-0.445-0.198-0.445-0.442s0.202-0.441,0.445-0.441h6.64c0.247,0,0.444,0.198,0.444,0.441
		s-0.197,0.442-0.444,0.442H26.214L26.214,29.609z M14.856,44.439c-0.244,0-0.447-0.198-0.447-0.441
		c0-0.244,0.203-0.441,0.447-0.441h17.997c0.247,0,0.444,0.197,0.444,0.441c0,0.244-0.197,0.441-0.444,0.441H14.856L14.856,44.439z
		 M14.856,39.499c-0.244,0-0.447-0.198-0.447-0.441c0-0.251,0.203-0.45,0.447-0.45h17.997c0.247,0,0.444,0.199,0.444,0.45
		c0,0.244-0.197,0.441-0.444,0.441H14.856L14.856,39.499z M13.085,53.37c-0.49,0-0.936-0.206-1.26-0.525
		c-0.319-0.32-0.521-0.769-0.521-1.255V21.577c0-0.495,0.198-0.937,0.521-1.256v-0.008c0.324-0.319,0.77-0.518,1.26-0.518h23.319
		V53.37H13.085L13.085,53.37z M36.85,54.26H13.085c-0.733,0-1.404-0.304-1.888-0.783c-0.483-0.48-0.784-1.15-0.784-1.888V21.577
		c0-0.73,0.301-1.401,0.78-1.88l0.004-0.008l0,0h0.004c0.483-0.487,1.152-0.784,1.884-0.784H36.85h23.766
		c0.733,0,1.399,0.297,1.883,0.784c0.483,0.487,0.784,1.149,0.784,1.888v4.827c0.012,0.054,0.012,0.115,0,0.176v25.009
		c0,0.738-0.301,1.401-0.784,1.888l0,0c-0.483,0.479-1.153,0.783-1.883,0.783H36.85L36.85,54.26z M62.393,26.936v24.653
		c0,0.494-0.197,0.935-0.519,1.255H61.87c-0.323,0.328-0.765,0.525-1.255,0.525H37.291V19.795h17.981v4.469
		c0,0.739,0.297,1.401,0.781,1.888c0.483,0.479,1.149,0.783,1.888,0.783H62.393L62.393,26.936z M61.775,26.046h-3.834
		c-0.49,0-0.935-0.198-1.256-0.525c-0.324-0.319-0.525-0.761-0.525-1.256v-3.837L61.775,26.046z"/>
	<path fill-rule="evenodd" clip-rule="evenodd" fill="#66499E" d="M55.278,18.905l0.005,5.359c0,0.739,0.295,1.401,0.779,1.888
		c0.483,0.479,1.149,0.783,1.889,0.783h4.45l0.889-0.007v-0.618l-7.384-7.406h-0.574"/>
</g>
<g id="Step_3">
</g>
<g id="Business_Training">
</g>
<g id="Variety">
</g>
<g id="Student_Support">
</g>
<g id="Hands_on_Traning">
</g>
<g id="Audio_Feedback">
</g>
<g id="Qualified_Tutors">
</g>
</svg>
