<?xml version="1.0" encoding="utf-8"?>
<!-- Generator: Adobe Illustrator 16.0.3, SVG Export Plug-In . SVG Version: 6.00 Build 0)  -->
<!DOCTYPE svg PUBLIC "-//W3C//DTD SVG 1.1//EN" "http://www.w3.org/Graphics/SVG/1.1/DTD/svg11.dtd">
<svg version="1.1" id="Layer_1" xmlns="http://www.w3.org/2000/svg" xmlns:xlink="http://www.w3.org/1999/xlink" x="0px" y="0px"
	 width="128.109px" height="132.619px" viewBox="0 0 128.109 132.619" enable-background="new 0 0 128.109 132.619"
	 xml:space="preserve">
<g id="Layer_1_1_">
	<g>
		<g>
			<linearGradient id="SVGID_1_" gradientUnits="userSpaceOnUse" x1="28.1467" y1="111.7334" x2="106.1467" y2="9.7334">
				<stop  offset="0" style="stop-color:#0BB6BA"/>
				<stop  offset="1" style="stop-color:#14A98A"/>
			</linearGradient>
			<path fill="url(#SVGID_1_)" d="M50.151,35.319c-0.813,0.814-2.134,0.814-2.947,0c-0.813-0.814-0.813-2.134,0-2.948l15.658-15.658
				c0.813-0.813,2.135-0.813,2.946,0l15.658,15.658c0.813,0.814,0.813,2.134,0,2.948c-0.813,0.814-2.134,0.814-2.946,0
				L64.336,21.135L50.151,35.319L50.151,35.319z M28.201,66.493c-1.151,0-2.084-0.934-2.084-2.084c0-1.15,0.933-2.084,2.084-2.084
				c8.37,0,15.979,3.423,21.494,8.938c5.516,5.516,8.938,13.123,8.938,21.494v21.275c0,1.152-0.933,2.084-2.084,2.084
				c-1.15,0-2.085-0.932-2.085-2.084V92.756c0-7.219-2.955-13.786-7.716-18.546C41.988,69.45,35.42,66.493,28.201,66.493
				L28.201,66.493z M100.471,62.324c1.151,0,2.084,0.934,2.084,2.084c0,1.15-0.933,2.084-2.084,2.084
				c-7.22,0-13.785,2.956-18.547,7.718c-4.761,4.762-7.718,11.327-7.718,18.545v21.275c0,1.152-0.934,2.084-2.084,2.084
				c-1.149,0-2.084-0.932-2.084-2.084V92.756c0-8.371,3.423-15.979,8.938-21.494C84.492,65.747,92.101,62.324,100.471,62.324
				L100.471,62.324z M66.42,114.031c0,1.151-0.934,2.084-2.084,2.084s-2.085-0.933-2.085-2.084V28.244
				c0-1.151,0.935-2.084,2.085-2.084s2.084,0.933,2.084,2.084V114.031L66.42,114.031z M35.246,78.592
				c0.813,0.814,0.813,2.134,0,2.948c-0.813,0.813-2.134,0.813-2.947,0L16.641,65.882c-0.813-0.814-0.813-2.134,0-2.948
				l15.657-15.658c0.813-0.814,2.134-0.814,2.947,0s0.813,2.134,0,2.948L21.062,64.408L35.246,78.592L35.246,78.592z M96.373,81.541
				c-0.813,0.813-2.135,0.813-2.947,0c-0.813-0.815-0.813-2.134,0-2.948l14.185-14.184L93.426,50.224
				c-0.813-0.814-0.813-2.134,0-2.948s2.135-0.814,2.947,0l15.657,15.658c0.814,0.814,0.814,2.134,0,2.948L96.373,81.541
				L96.373,81.541z"/>
		</g>
	</g>
</g>
<g id="Layer_2" display="none">
	<g display="inline">
		<g>
			<g>
				
					<linearGradient id="SVGID_2_" gradientUnits="userSpaceOnUse" x1="122.7615" y1="483.417" x2="15.5161" y2="590.6624" gradientTransform="matrix(1 0 0 1 0 -478.3809)">
					<stop  offset="0" style="stop-color:#4B28DB"/>
					<stop  offset="1" style="stop-color:#3552FF"/>
				</linearGradient>
				<path fill="url(#SVGID_2_)" d="M17.617,82.592c-0.566,0-1.133-0.217-1.563-0.647l-4.64-4.633
					c-2.606-2.604-2.606-6.847-0.004-9.451l51.813-51.866c1.553-1.561,3.776-2.252,5.94-1.85l33.773,6.233
					c2.772,0.512,4.938,2.728,5.388,5.515l5.274,32.958c0.338,2.109-0.358,4.27-1.871,5.781l-17.29,17.308
					c-0.862,0.867-2.265,0.862-3.127,0.002c-0.865-0.862-0.865-2.265,0-3.127l17.293-17.312c0.51-0.512,0.746-1.243,0.633-1.956
					L103.96,26.59c-0.149-0.942-0.883-1.693-1.821-1.866L68.36,18.492c-0.733-0.134-1.481,0.098-2.01,0.625L14.539,70.983
					c-0.879,0.882-0.879,2.315,0.002,3.197l4.64,4.633c0.863,0.862,0.863,2.265,0.002,3.127
					C18.75,82.375,18.183,82.592,17.617,82.592z"/>
			</g>
			<g>
				
					<linearGradient id="SVGID_3_" gradientUnits="userSpaceOnUse" x1="123.0808" y1="483.7324" x2="15.829" y2="590.9843" gradientTransform="matrix(1 0 0 1 0 -478.3809)">
					<stop  offset="0" style="stop-color:#4B28DB"/>
					<stop  offset="1" style="stop-color:#3552FF"/>
				</linearGradient>
				<path fill="url(#SVGID_3_)" d="M89.682,47.739c-3.249,0-5.917-1.702-7.409-3.869c-2.063-2.998-2.491-7.779,1.205-11.702
					c0.588-0.63,1.326-1.136,2.125-1.463c4.975-2.054,9.294,0.054,11.359,3.053c2.063,2.998,2.492,7.778-1.205,11.701
					c-0.59,0.627-1.323,1.133-2.123,1.462v0.001C92.254,47.489,90.926,47.739,89.682,47.739z M89.578,34.305
					c-0.696,0-1.465,0.147-2.294,0.489c-0.22,0.09-0.427,0.232-0.589,0.404c-2.141,2.271-1.807,4.674-0.78,6.163
					c1.022,1.487,3.146,2.661,6.034,1.469c0.217-0.088,0.43-0.236,0.588-0.404c2.142-2.272,1.808-4.672,0.78-6.163
					C92.588,35.204,91.301,34.305,89.578,34.305z"/>
			</g>
			<g>
				
					<linearGradient id="SVGID_4_" gradientUnits="userSpaceOnUse" x1="128.0408" y1="488.7002" x2="20.7979" y2="595.9431" gradientTransform="matrix(1 0 0 1 0 -478.3809)">
					<stop  offset="0" style="stop-color:#4B28DB"/>
					<stop  offset="1" style="stop-color:#3552FF"/>
				</linearGradient>
				<path fill="url(#SVGID_4_)" d="M55.284,120.219c-0.586,0-1.147-0.231-1.563-0.646l-26.597-26.57
					c-0.633-0.633-0.823-1.584-0.479-2.41c0.341-0.828,1.148-1.367,2.043-1.367h14.408V58.123c0-1.221,0.988-2.211,2.211-2.211
					H65.21c1.224,0,2.211,0.99,2.211,2.211v31.103l14.408-0.002c0.896,0,1.698,0.539,2.043,1.364
					c0.344,0.826,0.151,1.777-0.479,2.41l-26.544,26.569c-0.413,0.416-0.977,0.649-1.563,0.649
					C55.284,120.219,55.284,120.219,55.284,120.219z M34.03,93.647l21.253,21.229l21.211-21.231L65.21,93.647
					c-0.588,0-1.147-0.233-1.563-0.647C63.232,92.584,63,92.021,63,91.437V60.334H47.518v31.103c0,1.224-0.989,2.213-2.211,2.213
					H34.03V93.647z"/>
			</g>
		</g>
	</g>
</g>
<g id="Layer_3" display="none">
	<g transform="matrix( 1, 0, 0, 1, 0,0) " display="inline">
		<g>
			<g>
				
					<linearGradient id="SVGID_5_" gradientUnits="userSpaceOnUse" x1="6.2058" y1="592.25" x2="122.5372" y2="475.9186" gradientTransform="matrix(1 0 0 1 0 -478.3809)">
					<stop  offset="0" style="stop-color:#4B28DB"/>
					<stop  offset="1" style="stop-color:#3552FF"/>
				</linearGradient>
				<path fill="url(#SVGID_5_)" d="M83.06,115.067H32.343c-0.173,0-0.344-0.022-0.511-0.065c-9.826-2.597-14.275-5.424-14.429-9.168
					l-0.002-0.401V28.351c0.068-1.774,0.556-3.331,1.446-4.706c0.126-0.201,0.28-0.483,0.451-0.789
					c0.951-1.708,2.255-4.046,4.489-4.354c0.091-0.012,0.183-0.019,0.272-0.019h59.879c1.104,0,2,0.896,2,2v5.102l5.654,4.865h4.161
					c1.104,0,2,0.896,2,2V56.7c0,1.104-0.896,2-2,2c-1.104,0-2-0.896-2-2V34.45H33.146c-0.133,0-0.266-0.013-0.396-0.04
					c-5.429-1.094-8.612-2.595-10.024-4.726c-0.71-1.07-0.955-2.295-0.71-3.544c-0.385,0.701-0.582,1.448-0.615,2.289l0.002,77.324
					c0.002,0.02,0.224,2.379,11.201,5.314H83.06c1.104,0,2,0.895,2,2C85.06,114.172,84.164,115.067,83.06,115.067z M33.348,30.45
					h52.115L83.2,28.503H27.323C28.36,29.088,30.176,29.797,33.348,30.45z M24.369,22.484c-0.474,0.342-1.237,1.715-1.574,2.32
					c-0.029,0.054-0.062,0.107-0.09,0.16c0.351-0.29,0.797-0.461,1.276-0.461h57.96v-2.019H24.369z M33.146,107.672
					c-1.104,0-2-0.896-2-2V41.05c0-1.104,0.896-2,2-2c1.104,0,2,0.896,2,2v64.622C35.146,106.774,34.251,107.672,33.146,107.672z"/>
			</g>
		</g>
	</g>
	<g display="inline">
		<g>
			
				<linearGradient id="SVGID_6_" gradientUnits="userSpaceOnUse" x1="34.6218" y1="620.667" x2="150.9537" y2="504.3352" gradientTransform="matrix(1 0 0 1 0 -478.3809)">
				<stop  offset="0" style="stop-color:#4B28DB"/>
				<stop  offset="1" style="stop-color:#3552FF"/>
			</linearGradient>
			<path fill="url(#SVGID_6_)" d="M65.934,65.5c0.414-0.414,0.978-0.648,1.563-0.648l37.596-0.019c0.896,0,1.701,0.539,2.044,1.365
				c0.344,0.826,0.152,1.779-0.479,2.41L96.469,78.797l21.991,21.992c0.863,0.862,0.864,2.265,0,3.129l-14.073,14.074
				c-0.864,0.862-2.265,0.862-3.128-0.002L79.268,96L69.08,106.188c-0.632,0.633-1.583,0.818-2.409,0.479s-1.364-1.148-1.363-2.043
				l-0.021-37.559c-0.002-0.584,0.229-1.148,0.646-1.563C65.934,65.5,65.934,65.5,65.934,65.5z M99.75,69.259l-30.039,0.016
				l0.016,30.012l7.979-7.979c0.415-0.414,0.979-0.646,1.563-0.646s1.147,0.23,1.563,0.646l21.993,21.993l10.945-10.946
				L91.777,80.36c-0.862-0.863-0.864-2.264,0-3.129L99.75,69.259z"/>
		</g>
	</g>
</g>
<g id="Layer_4" display="none">
	<g display="inline">
		
			<linearGradient id="SVGID_7_" gradientUnits="userSpaceOnUse" x1="17.8743" y1="542.9102" x2="115.9177" y2="542.9102" gradientTransform="matrix(1 0 0 1 0 -478.3809)">
			<stop  offset="0" style="stop-color:#4B28DB"/>
			<stop  offset="1" style="stop-color:#3552FF"/>
		</linearGradient>
		<path fill="url(#SVGID_7_)" d="M65.247,104.87c-5.104-5.104-8.172-11.879-8.637-19.075c-0.082-1.286,0.894-2.394,2.179-2.478
			c1.285-0.082,2.396,0.893,2.479,2.179c0.391,6.063,2.976,11.772,7.276,16.076c9.757,9.757,25.637,9.757,35.394-0.001
			c9.758-9.758,9.758-25.635,0-35.392C93.789,56.032,81.803,56.101,68.31,66.384l-0.029,0.022c-7.37,5.44-14.737,8.231-21.895,8.296
			c-7.333,0.063-14.19-2.885-19.83-8.524c-11.576-11.577-11.576-30.414,0-41.989c11.576-11.577,30.413-11.577,41.989-0.001
			c4.208,4.208,7.025,9.508,8.153,15.327c0.243,1.265-0.583,2.488-1.848,2.733c-1.266,0.246-2.488-0.583-2.732-1.846
			c-0.948-4.903-3.326-9.368-6.873-12.914c-9.759-9.757-25.635-9.757-35.393-0.001c-9.757,9.759-9.757,25.636,0,35.392
			c9.679,9.679,22.335,9.604,35.644-0.215c7.691-5.859,15.202-8.788,22.318-8.705c7.05,0.082,13.583,3.083,19.421,8.922
			c11.576,11.576,11.576,30.414,0,41.989C95.661,116.444,76.823,116.446,65.247,104.87z"/>
	</g>
</g>
<g id="Layer_5" display="none">
	<g display="inline">
		
			<linearGradient id="SVGID_8_" gradientUnits="userSpaceOnUse" x1="26.8162" y1="550.5879" x2="102.9519" y2="550.5879" gradientTransform="matrix(1 0 0 1 0 -478.3809)">
			<stop  offset="0" style="stop-color:#4B28DB"/>
			<stop  offset="1" style="stop-color:#3552FF"/>
		</linearGradient>
		<path fill="url(#SVGID_8_)" d="M101.352,15.373H28.417c-0.884,0-1.601,0.715-1.601,1.6v92.447c0,0.884,0.717,1.601,1.601,1.601
			h43.425v16.422c0,0.709,0.469,1.334,1.146,1.533c0.682,0.199,1.414-0.069,1.799-0.668l4.84-7.511l4.84,7.511
			c0.302,0.465,0.813,0.732,1.345,0.732c0.149,0,0.302-0.021,0.451-0.064c0.681-0.199,1.147-0.824,1.147-1.533v-16.422h13.941
			c0.884,0,1.601-0.719,1.601-1.602V16.972C102.951,16.088,102.235,15.373,101.352,15.373z M79.626,100.677
			c-6.113,0-11.091-4.976-11.091-11.091c0-6.114,4.978-11.089,11.091-11.089c6.114,0,11.089,4.975,11.089,11.089
			C90.715,95.701,85.74,100.677,79.626,100.677z M80.97,116.976c-0.295-0.455-0.801-0.729-1.345-0.729s-1.051,0.274-1.346,0.729
			l-3.239,5.029v-18.889c1.438,0.488,2.979,0.759,4.585,0.759c1.604,0,3.146-0.271,4.584-0.759v18.889L80.97,116.976z
			 M99.752,107.819H87.409v-6.26c3.911-2.555,6.505-6.967,6.505-11.976c0-7.878-6.41-14.288-14.288-14.288
			c-7.88,0-14.289,6.41-14.289,14.288c0,5.009,2.594,9.421,6.505,11.976v6.26H30.016V18.571h69.735V107.819z"/>
		
			<linearGradient id="SVGID_9_" gradientUnits="userSpaceOnUse" x1="34.7068" y1="541.417" x2="95.0623" y2="541.417" gradientTransform="matrix(1 0 0 1 0 -478.3809)">
			<stop  offset="0" style="stop-color:#4B28DB"/>
			<stop  offset="1" style="stop-color:#3552FF"/>
		</linearGradient>
		<path fill="url(#SVGID_9_)" d="M36.307,102.703h21.219c0.885,0,1.6-0.718,1.6-1.601c0-0.886-0.715-1.602-1.6-1.602h-19.62V26.568
			H91.86V69.67c0,0.884,0.717,1.599,1.602,1.599s1.601-0.715,1.601-1.599V24.969c0-0.883-0.716-1.6-1.601-1.6H36.307
			c-0.884,0-1.601,0.717-1.601,1.6v76.134C34.708,101.985,35.424,102.703,36.307,102.703z"/>
		
			<linearGradient id="SVGID_10_" gradientUnits="userSpaceOnUse" x1="53.9001" y1="513.5859" x2="75.8689" y2="513.5859" gradientTransform="matrix(1 0 0 1 0 -478.3809)">
			<stop  offset="0" style="stop-color:#4B28DB"/>
			<stop  offset="1" style="stop-color:#3552FF"/>
		</linearGradient>
		<path fill="url(#SVGID_10_)" d="M74.268,36.804c0.883,0,1.601-0.715,1.601-1.598c0-0.884-0.718-1.6-1.601-1.6H55.5
			c-0.884,0-1.6,0.715-1.6,1.6c0,0.883,0.716,1.598,1.6,1.598H74.268z"/>
		
			<linearGradient id="SVGID_11_" gradientUnits="userSpaceOnUse" x1="42.9177" y1="524.6748" x2="86.8503" y2="524.6748" gradientTransform="matrix(1 0 0 1 0 -478.3809)">
			<stop  offset="0" style="stop-color:#4B28DB"/>
			<stop  offset="1" style="stop-color:#3552FF"/>
		</linearGradient>
		<path fill="url(#SVGID_11_)" d="M85.251,44.695H44.518c-0.884,0-1.601,0.716-1.601,1.599s0.716,1.6,1.601,1.6h40.732
			c0.883,0,1.6-0.717,1.6-1.6S86.134,44.695,85.251,44.695z"/>
		
			<linearGradient id="SVGID_12_" gradientUnits="userSpaceOnUse" x1="42.9177" y1="567.9668" x2="58.7009" y2="567.9668" gradientTransform="matrix(1 0 0 1 0 -478.3809)">
			<stop  offset="0" style="stop-color:#4B28DB"/>
			<stop  offset="1" style="stop-color:#3552FF"/>
		</linearGradient>
		<path fill="url(#SVGID_12_)" d="M44.518,87.985c-0.884,0-1.601,0.717-1.601,1.601c0,0.886,0.716,1.601,1.601,1.601h12.583
			c0.884,0,1.6-0.715,1.6-1.601c0-0.884-0.716-1.601-1.6-1.601H44.518z"/>
	</g>
</g>
<g id="Layer_6" display="none">
	
		<linearGradient id="SVGID_13_" gradientUnits="userSpaceOnUse" x1="10.5027" y1="550.9639" x2="118.072" y2="550.9639" gradientTransform="matrix(1 0 0 1 0 -478.3809)">
		<stop  offset="0" style="stop-color:#4B28DB"/>
		<stop  offset="1" style="stop-color:#3552FF"/>
	</linearGradient>
	<path display="inline" fill="url(#SVGID_13_)" d="M30.69,122.707v-21.922c0-0.677-0.527-1.206-1.205-1.206h-9.088
		c-5.455,0-9.895-4.438-9.895-9.895V32.352c0-5.455,4.438-9.894,9.895-9.894h87.782c5.454,0,9.893,4.438,9.893,9.894V89.7
		c0,5.456-4.438,9.895-9.893,9.895H52.32c-0.344,0-0.667,0.141-0.89,0.385L30.69,122.707z M20.397,25.835
		c-3.593,0-6.518,2.924-6.518,6.517v57.334c0,3.592,2.925,6.517,6.518,6.517h9.088c2.526,0,4.582,2.056,4.582,4.583v13.212
		l14.864-16.289c0.854-0.946,2.093-1.491,3.389-1.491h55.859c3.593,0,6.516-2.924,6.516-6.518V32.352
		c0-3.593-2.923-6.517-6.516-6.517H20.397z"/>
	
		<linearGradient id="SVGID_14_" gradientUnits="userSpaceOnUse" x1="31.4167" y1="518.9404" x2="99.1365" y2="518.9404" gradientTransform="matrix(1 0 0 1 0 -478.3809)">
		<stop  offset="0" style="stop-color:#4B28DB"/>
		<stop  offset="1" style="stop-color:#3552FF"/>
	</linearGradient>
	<path display="inline" fill="url(#SVGID_14_)" d="M96.672,38.094H33.884c-1.363,0-2.467,1.104-2.467,2.465
		c0,1.362,1.104,2.467,2.467,2.467h62.788c1.361,0,2.465-1.104,2.465-2.467C99.136,39.197,98.033,38.094,96.672,38.094z"/>
	
		<linearGradient id="SVGID_15_" gradientUnits="userSpaceOnUse" x1="31.4167" y1="538.4678" x2="99.1365" y2="538.4678" gradientTransform="matrix(1 0 0 1 0 -478.3809)">
		<stop  offset="0" style="stop-color:#4B28DB"/>
		<stop  offset="1" style="stop-color:#3552FF"/>
	</linearGradient>
	<path display="inline" fill="url(#SVGID_15_)" d="M96.671,57.62H33.882c-1.361,0-2.465,1.105-2.465,2.466
		c0,1.361,1.104,2.468,2.465,2.468h62.789c1.361,0,2.466-1.106,2.466-2.468C99.136,58.726,98.032,57.62,96.671,57.62z"/>
	
		<linearGradient id="SVGID_16_" gradientUnits="userSpaceOnUse" x1="31.4167" y1="557.9951" x2="99.1365" y2="557.9951" gradientTransform="matrix(1 0 0 1 0 -478.3809)">
		<stop  offset="0" style="stop-color:#4B28DB"/>
		<stop  offset="1" style="stop-color:#3552FF"/>
	</linearGradient>
	<path display="inline" fill="url(#SVGID_16_)" d="M96.672,77.147H33.884c-1.363,0-2.467,1.104-2.467,2.465
		c0,1.363,1.104,2.468,2.467,2.468h62.788c1.361,0,2.465-1.104,2.465-2.468C99.136,78.252,98.033,77.147,96.672,77.147z"/>
</g>
</svg>
