<?xml version="1.0" encoding="utf-8"?>
<!-- Generator: Adobe Illustrator 16.0.3, SVG Export Plug-In . SVG Version: 6.00 Build 0)  -->
<!DOCTYPE svg PUBLIC "-//W3C//DTD SVG 1.1//EN" "http://www.w3.org/Graphics/SVG/1.1/DTD/svg11.dtd">
<svg version="1.1" id="Layer_1" xmlns="http://www.w3.org/2000/svg" xmlns:xlink="http://www.w3.org/1999/xlink" x="0px" y="0px"
	 width="47.914px" height="47.918px" viewBox="44.102 41.572 47.914 47.918" enable-background="new 44.102 41.572 47.914 47.918"
	 xml:space="preserve">
<g id="Layer_1_1_" display="none">
	<g display="inline">
		
			<linearGradient id="SVGID_1_" gradientUnits="userSpaceOnUse" x1="20.2576" y1="-370.686" x2="114.2942" y2="-464.7227" gradientTransform="matrix(1 0 0 -1 0 -344.7617)">
			<stop  offset="0" style="stop-color:#4B28DB"/>
			<stop  offset="1" style="stop-color:#3552FF"/>
		</linearGradient>
		<path fill="url(#SVGID_1_)" d="M50.151,35.319c-0.813,0.814-2.134,0.814-2.947,0c-0.813-0.814-0.813-2.134,0-2.948l15.658-15.658
			c0.813-0.813,2.135-0.813,2.946,0l15.657,15.658c0.813,0.814,0.813,2.134,0,2.948c-0.813,0.814-2.134,0.814-2.945,0L64.336,21.135
			L50.151,35.319L50.151,35.319z M28.201,66.493c-1.151,0-2.084-0.934-2.084-2.084c0-1.15,0.933-2.084,2.084-2.084
			c8.37,0,15.979,3.423,21.494,8.938c5.516,5.516,8.938,13.123,8.938,21.494v21.275c0,1.152-0.933,2.084-2.084,2.084
			c-1.149,0-2.085-0.932-2.085-2.084V92.756c0-7.219-2.955-13.786-7.716-18.546C41.988,69.45,35.42,66.493,28.201,66.493
			L28.201,66.493z M100.471,62.324c1.15,0,2.084,0.934,2.084,2.084c0,1.15-0.934,2.084-2.084,2.084
			c-7.221,0-13.785,2.956-18.548,7.718c-4.761,4.762-7.718,11.327-7.718,18.545v21.275c0,1.152-0.934,2.084-2.084,2.084
			c-1.148,0-2.084-0.932-2.084-2.084V92.756c0-8.371,3.423-15.979,8.938-21.494S92.101,62.324,100.471,62.324L100.471,62.324z
			 M66.42,114.031c0,1.151-0.934,2.084-2.084,2.084c-1.149,0-2.085-0.933-2.085-2.084V28.244c0-1.151,0.936-2.084,2.085-2.084
			c1.15,0,2.084,0.933,2.084,2.084V114.031L66.42,114.031z M35.246,78.592c0.813,0.814,0.813,2.134,0,2.948
			c-0.813,0.813-2.134,0.813-2.947,0L16.641,65.882c-0.813-0.814-0.813-2.134,0-2.948l15.656-15.658
			c0.813-0.814,2.135-0.814,2.947,0c0.813,0.814,0.813,2.134,0,2.948L21.062,64.408L35.246,78.592L35.246,78.592z M96.373,81.541
			c-0.813,0.813-2.135,0.813-2.947,0c-0.813-0.815-0.813-2.134,0-2.948l14.186-14.184L93.426,50.224
			c-0.813-0.814-0.813-2.134,0-2.948c0.813-0.814,2.136-0.814,2.947,0l15.657,15.658c0.814,0.814,0.814,2.134,0,2.948L96.373,81.541
			L96.373,81.541z"/>
	</g>
</g>
<g id="Layer_2" display="none">
	<g display="inline">
		<g>
			<g>
				
					<linearGradient id="SVGID_2_" gradientUnits="userSpaceOnUse" x1="122.7625" y1="-349.7974" x2="15.517" y2="-457.0428" gradientTransform="matrix(1 0 0 -1 0 -344.7617)">
					<stop  offset="0" style="stop-color:#4B28DB"/>
					<stop  offset="1" style="stop-color:#3552FF"/>
				</linearGradient>
				<path fill="url(#SVGID_2_)" d="M17.617,82.592c-0.566,0-1.133-0.217-1.563-0.647l-4.641-4.633
					c-2.605-2.604-2.605-6.847-0.004-9.451l51.813-51.865c1.553-1.561,3.775-2.252,5.939-1.85l33.773,6.233
					c2.771,0.512,4.938,2.728,5.388,5.515l5.274,32.958c0.338,2.109-0.358,4.27-1.871,5.781L94.437,81.94
					c-0.862,0.867-2.266,0.861-3.127,0.002c-0.865-0.862-0.865-2.266,0-3.127l17.293-17.313c0.51-0.512,0.746-1.243,0.633-1.956
					L103.96,26.59c-0.148-0.942-0.883-1.693-1.82-1.866L68.36,18.492c-0.733-0.134-1.481,0.098-2.01,0.625L14.539,70.983
					c-0.879,0.882-0.879,2.314,0.002,3.197l4.641,4.633c0.862,0.861,0.862,2.265,0.002,3.127
					C18.75,82.375,18.183,82.592,17.617,82.592z"/>
			</g>
			<g>
				
					<linearGradient id="SVGID_3_" gradientUnits="userSpaceOnUse" x1="123.0808" y1="-350.1118" x2="15.829" y2="-457.3637" gradientTransform="matrix(1 0 0 -1 0 -344.7617)">
					<stop  offset="0" style="stop-color:#4B28DB"/>
					<stop  offset="1" style="stop-color:#3552FF"/>
				</linearGradient>
				<path fill="url(#SVGID_3_)" d="M89.682,47.739c-3.249,0-5.917-1.702-7.409-3.869c-2.063-2.998-2.491-7.779,1.205-11.702
					c0.588-0.63,1.326-1.136,2.125-1.463c4.975-2.054,9.294,0.054,11.358,3.053c2.063,2.998,2.492,7.778-1.205,11.701
					c-0.59,0.627-1.322,1.133-2.123,1.462v0.001C92.254,47.489,90.926,47.739,89.682,47.739z M89.578,34.305
					c-0.696,0-1.465,0.147-2.294,0.489c-0.22,0.09-0.427,0.232-0.589,0.404c-2.141,2.271-1.807,4.674-0.78,6.163
					c1.022,1.487,3.146,2.661,6.034,1.469c0.217-0.088,0.43-0.236,0.588-0.404c2.143-2.272,1.809-4.672,0.78-6.163
					C92.588,35.204,91.301,34.305,89.578,34.305z"/>
			</g>
			<g>
				
					<linearGradient id="SVGID_4_" gradientUnits="userSpaceOnUse" x1="128.0398" y1="-355.0815" x2="20.7988" y2="-462.3225" gradientTransform="matrix(1 0 0 -1 0 -344.7617)">
					<stop  offset="0" style="stop-color:#4B28DB"/>
					<stop  offset="1" style="stop-color:#3552FF"/>
				</linearGradient>
				<path fill="url(#SVGID_4_)" d="M55.284,120.219c-0.586,0-1.146-0.231-1.563-0.646l-26.598-26.57
					c-0.633-0.633-0.823-1.584-0.479-2.41c0.341-0.828,1.147-1.367,2.043-1.367h14.408V58.123c0-1.221,0.987-2.211,2.211-2.211
					H65.21c1.225,0,2.211,0.99,2.211,2.211v31.103l14.408-0.002c0.896,0,1.698,0.539,2.043,1.364
					c0.344,0.826,0.151,1.777-0.479,2.41l-26.544,26.569c-0.413,0.416-0.978,0.648-1.563,0.648
					C55.284,120.219,55.284,120.219,55.284,120.219z M34.03,93.647l21.253,21.229l21.211-21.23L65.21,93.647
					c-0.588,0-1.146-0.233-1.563-0.647C63.232,92.584,63,92.021,63,91.437V60.334H47.518v31.103c0,1.225-0.989,2.213-2.211,2.213
					H34.03V93.647z"/>
			</g>
		</g>
	</g>
</g>
<g id="Layer_3">
	<g transform="matrix( 1, 0, 0, 1, 0,0) ">
		<g>
			<g>
				
					<linearGradient id="SVGID_5_" gradientUnits="userSpaceOnUse" x1="-272.3142" y1="-350.4419" x2="-135.9477" y2="-486.8085" gradientTransform="matrix(1 0 0 -1 0 -344.7617)">
					<stop  offset="0" style="stop-color:#0BB6BA"/>
					<stop  offset="1" style="stop-color:#14A98A"/>
				</linearGradient>
				<path fill="url(#SVGID_5_)" d="M-197.94,100.067h-50.718c-0.173,0-0.344-0.022-0.511-0.065
					c-9.826-2.597-14.274-5.424-14.429-9.168l-0.002-0.401V13.351c0.068-1.774,0.556-3.331,1.446-4.706
					c0.126-0.201,0.279-0.483,0.45-0.789c0.951-1.708,2.256-4.046,4.489-4.354c0.091-0.012,0.184-0.019,0.272-0.019h59.879
					c1.104,0,2,0.896,2,2v5.102l5.653,4.865h4.161c1.104,0,2,0.896,2,2V41.7c0,1.104-0.896,2-2,2c-1.104,0-2-0.896-2-2V19.45
					h-60.606c-0.133,0-0.267-0.013-0.396-0.04c-5.429-1.094-8.611-2.595-10.023-4.726c-0.71-1.07-0.955-2.295-0.71-3.544
					c-0.386,0.701-0.582,1.448-0.615,2.289l0.002,77.324c0.002,0.02,0.224,2.379,11.201,5.314h50.456c1.104,0,2,0.895,2,2
					C-195.94,99.172-196.836,100.067-197.94,100.067z M-247.652,15.45h52.114l-2.263-1.947h-55.877
					C-252.64,14.088-250.824,14.797-247.652,15.45z M-256.631,7.484c-0.474,0.342-1.237,1.715-1.574,2.32
					c-0.028,0.054-0.062,0.107-0.09,0.16c0.352-0.29,0.797-0.461,1.276-0.461h57.96V7.484H-256.631z M-247.854,92.672
					c-1.104,0-2-0.896-2-2V26.05c0-1.104,0.896-2,2-2c1.104,0,2,0.896,2,2v64.622C-245.854,91.774-246.749,92.672-247.854,92.672z"
					/>
			</g>
		</g>
	</g>
	<g>
		<g>
			
				<linearGradient id="SVGID_6_" gradientUnits="userSpaceOnUse" x1="-266.0808" y1="-344.209" x2="-129.7157" y2="-480.5742" gradientTransform="matrix(1 0 0 -1 0 -344.7617)">
				<stop  offset="0" style="stop-color:#0BB6BA"/>
				<stop  offset="1" style="stop-color:#14A98A"/>
			</linearGradient>
			<path fill="url(#SVGID_6_)" d="M-215.066,50.5c0.414-0.414,0.978-0.648,1.563-0.648l37.596-0.019
				c0.896,0,1.701,0.539,2.045,1.365s0.151,1.779-0.479,2.41l-10.188,10.188l21.99,21.992c0.863,0.862,0.864,2.265,0,3.129
				l-14.072,14.074c-0.864,0.862-2.266,0.862-3.129-0.002L-201.732,81l-10.188,10.188c-0.632,0.633-1.583,0.817-2.409,0.479
				c-0.825-0.339-1.363-1.148-1.362-2.043l-0.021-37.559c-0.002-0.584,0.229-1.148,0.646-1.563
				C-215.066,50.5-215.066,50.5-215.066,50.5z M-181.25,54.259l-30.039,0.016l0.017,30.013l7.979-7.979
				c0.415-0.414,0.979-0.646,1.563-0.646s1.146,0.229,1.563,0.646l21.993,21.993l10.945-10.946l-21.993-21.994
				c-0.862-0.863-0.864-2.264,0-3.129L-181.25,54.259z"/>
		</g>
	</g>
</g>
<g id="Layer_4" display="none">
	<g display="inline">
		
			<linearGradient id="SVGID_7_" gradientUnits="userSpaceOnUse" x1="17.8743" y1="-409.2905" x2="115.9167" y2="-409.2905" gradientTransform="matrix(1 0 0 -1 0 -344.7617)">
			<stop  offset="0" style="stop-color:#4B28DB"/>
			<stop  offset="1" style="stop-color:#3552FF"/>
		</linearGradient>
		<path fill="url(#SVGID_7_)" d="M65.247,104.87c-5.104-5.104-8.172-11.879-8.637-19.075c-0.082-1.286,0.894-2.394,2.179-2.478
			c1.285-0.082,2.396,0.893,2.479,2.179c0.391,6.063,2.976,11.772,7.275,16.076c9.757,9.757,25.638,9.757,35.395-0.001
			c9.758-9.758,9.758-25.635,0-35.392C93.789,56.032,81.803,56.101,68.31,66.384l-0.029,0.022c-7.37,5.44-14.737,8.231-21.895,8.296
			c-7.333,0.063-14.19-2.885-19.83-8.524c-11.576-11.577-11.576-30.414,0-41.989c11.575-11.577,30.413-11.577,41.988-0.001
			c4.208,4.208,7.025,9.508,8.153,15.327c0.243,1.265-0.583,2.488-1.848,2.733c-1.267,0.246-2.488-0.583-2.732-1.846
			c-0.948-4.903-3.326-9.368-6.873-12.914c-9.759-9.757-25.635-9.757-35.393-0.001c-9.757,9.759-9.757,25.636,0,35.392
			c9.679,9.679,22.335,9.604,35.644-0.215c7.691-5.859,15.202-8.788,22.318-8.705c7.05,0.082,13.583,3.083,19.421,8.922
			c11.576,11.576,11.576,30.414,0,41.989C95.661,116.444,76.823,116.446,65.247,104.87z"/>
	</g>
</g>
<g id="Layer_5" display="none">
	<g display="inline">
		
			<linearGradient id="SVGID_8_" gradientUnits="userSpaceOnUse" x1="26.8162" y1="-416.9688" x2="102.9519" y2="-416.9688" gradientTransform="matrix(1 0 0 -1 0 -344.7617)">
			<stop  offset="0" style="stop-color:#4B28DB"/>
			<stop  offset="1" style="stop-color:#3552FF"/>
		</linearGradient>
		<path fill="url(#SVGID_8_)" d="M101.352,15.373H28.417c-0.884,0-1.601,0.715-1.601,1.6v92.447c0,0.884,0.717,1.601,1.601,1.601
			h43.425v16.422c0,0.709,0.47,1.334,1.146,1.533c0.682,0.199,1.414-0.068,1.799-0.668l4.84-7.511l4.84,7.511
			c0.303,0.465,0.813,0.732,1.346,0.732c0.148,0,0.302-0.021,0.451-0.064c0.681-0.199,1.146-0.824,1.146-1.533v-16.422h13.941
			c0.884,0,1.601-0.719,1.601-1.602V16.972C102.951,16.088,102.235,15.373,101.352,15.373z M79.626,100.677
			c-6.112,0-11.091-4.976-11.091-11.091c0-6.114,4.979-11.089,11.091-11.089c6.114,0,11.089,4.975,11.089,11.089
			C90.715,95.701,85.74,100.677,79.626,100.677z M80.97,116.976c-0.296-0.455-0.802-0.729-1.346-0.729s-1.051,0.273-1.346,0.729
			l-3.239,5.029v-18.889c1.438,0.488,2.979,0.759,4.585,0.759c1.604,0,3.146-0.271,4.584-0.759v18.889L80.97,116.976z
			 M99.752,107.819H87.409v-6.26c3.911-2.556,6.505-6.968,6.505-11.977c0-7.878-6.41-14.288-14.288-14.288
			c-7.88,0-14.289,6.41-14.289,14.288c0,5.009,2.595,9.421,6.505,11.977v6.26H30.016V18.571h69.734L99.752,107.819L99.752,107.819z"
			/>
		
			<linearGradient id="SVGID_9_" gradientUnits="userSpaceOnUse" x1="34.7058" y1="-407.7979" x2="95.0632" y2="-407.7979" gradientTransform="matrix(1 0 0 -1 0 -344.7617)">
			<stop  offset="0" style="stop-color:#4B28DB"/>
			<stop  offset="1" style="stop-color:#3552FF"/>
		</linearGradient>
		<path fill="url(#SVGID_9_)" d="M36.307,102.703h21.219c0.885,0,1.6-0.718,1.6-1.601c0-0.887-0.715-1.603-1.6-1.603h-19.62V26.568
			H91.86V69.67c0,0.884,0.717,1.599,1.602,1.599c0.886,0,1.602-0.715,1.602-1.599V24.969c0-0.883-0.716-1.6-1.602-1.6H36.307
			c-0.885,0-1.602,0.717-1.602,1.6v76.134C34.708,101.985,35.424,102.703,36.307,102.703z"/>
		
			<linearGradient id="SVGID_10_" gradientUnits="userSpaceOnUse" x1="53.9001" y1="-379.9668" x2="75.8689" y2="-379.9668" gradientTransform="matrix(1 0 0 -1 0 -344.7617)">
			<stop  offset="0" style="stop-color:#4B28DB"/>
			<stop  offset="1" style="stop-color:#3552FF"/>
		</linearGradient>
		<path fill="url(#SVGID_10_)" d="M74.268,36.804c0.883,0,1.601-0.715,1.601-1.598c0-0.884-0.718-1.6-1.601-1.6H55.5
			c-0.884,0-1.6,0.715-1.6,1.6c0,0.883,0.716,1.598,1.6,1.598H74.268z"/>
		
			<linearGradient id="SVGID_11_" gradientUnits="userSpaceOnUse" x1="42.9167" y1="-391.0562" x2="86.8503" y2="-391.0562" gradientTransform="matrix(1 0 0 -1 0 -344.7617)">
			<stop  offset="0" style="stop-color:#4B28DB"/>
			<stop  offset="1" style="stop-color:#3552FF"/>
		</linearGradient>
		<path fill="url(#SVGID_11_)" d="M85.251,44.695H44.518c-0.885,0-1.602,0.716-1.602,1.599s0.716,1.6,1.602,1.6H85.25
			c0.883,0,1.601-0.717,1.601-1.6S86.134,44.695,85.251,44.695z"/>
		
			<linearGradient id="SVGID_12_" gradientUnits="userSpaceOnUse" x1="42.9167" y1="-434.3477" x2="58.7009" y2="-434.3477" gradientTransform="matrix(1 0 0 -1 0 -344.7617)">
			<stop  offset="0" style="stop-color:#4B28DB"/>
			<stop  offset="1" style="stop-color:#3552FF"/>
		</linearGradient>
		<path fill="url(#SVGID_12_)" d="M44.518,87.985c-0.885,0-1.602,0.717-1.602,1.601c0,0.886,0.716,1.601,1.602,1.601h12.583
			c0.884,0,1.6-0.715,1.6-1.601c0-0.884-0.716-1.601-1.6-1.601H44.518z"/>
	</g>
</g>
<g id="Layer_6" display="none">
	
		<linearGradient id="SVGID_13_" gradientUnits="userSpaceOnUse" x1="10.5017" y1="-417.3442" x2="118.072" y2="-417.3442" gradientTransform="matrix(1 0 0 -1 0 -344.7617)">
		<stop  offset="0" style="stop-color:#4B28DB"/>
		<stop  offset="1" style="stop-color:#3552FF"/>
	</linearGradient>
	<path display="inline" fill="url(#SVGID_13_)" d="M30.69,122.707v-21.922c0-0.677-0.527-1.206-1.205-1.206h-9.088
		c-5.455,0-9.896-4.438-9.896-9.895V32.352c0-5.455,4.438-9.894,9.896-9.894h87.782c5.453,0,9.893,4.438,9.893,9.894V89.7
		c0,5.456-4.438,9.895-9.893,9.895H52.32c-0.344,0-0.667,0.141-0.89,0.385L30.69,122.707z M20.397,25.835
		c-3.593,0-6.519,2.924-6.519,6.517v57.334c0,3.592,2.926,6.517,6.519,6.517h9.088c2.526,0,4.582,2.056,4.582,4.583v13.212
		l14.864-16.289c0.854-0.946,2.093-1.491,3.389-1.491h55.859c3.593,0,6.516-2.924,6.516-6.518V32.352
		c0-3.593-2.923-6.517-6.516-6.517H20.397z"/>
	
		<linearGradient id="SVGID_14_" gradientUnits="userSpaceOnUse" x1="31.4167" y1="-385.3213" x2="99.1375" y2="-385.3213" gradientTransform="matrix(1 0 0 -1 0 -344.7617)">
		<stop  offset="0" style="stop-color:#4B28DB"/>
		<stop  offset="1" style="stop-color:#3552FF"/>
	</linearGradient>
	<path display="inline" fill="url(#SVGID_14_)" d="M96.672,38.094H33.884c-1.362,0-2.467,1.104-2.467,2.465
		c0,1.362,1.104,2.467,2.467,2.467h62.788c1.361,0,2.466-1.104,2.466-2.467C99.136,39.197,98.033,38.094,96.672,38.094z"/>
	
		<linearGradient id="SVGID_15_" gradientUnits="userSpaceOnUse" x1="31.4167" y1="-404.8486" x2="99.1375" y2="-404.8486" gradientTransform="matrix(1 0 0 -1 0 -344.7617)">
		<stop  offset="0" style="stop-color:#4B28DB"/>
		<stop  offset="1" style="stop-color:#3552FF"/>
	</linearGradient>
	<path display="inline" fill="url(#SVGID_15_)" d="M96.671,57.62H33.882c-1.36,0-2.465,1.105-2.465,2.466
		c0,1.361,1.104,2.468,2.465,2.468h62.789c1.361,0,2.467-1.106,2.467-2.468C99.136,58.726,98.032,57.62,96.671,57.62z"/>
	
		<linearGradient id="SVGID_16_" gradientUnits="userSpaceOnUse" x1="31.4167" y1="-424.3755" x2="99.1375" y2="-424.3755" gradientTransform="matrix(1 0 0 -1 0 -344.7617)">
		<stop  offset="0" style="stop-color:#4B28DB"/>
		<stop  offset="1" style="stop-color:#3552FF"/>
	</linearGradient>
	<path display="inline" fill="url(#SVGID_16_)" d="M96.672,77.147H33.884c-1.362,0-2.467,1.104-2.467,2.465
		c0,1.363,1.104,2.468,2.467,2.468h62.788c1.361,0,2.466-1.104,2.466-2.468C99.136,78.252,98.033,77.147,96.672,77.147z"/>
</g>
<g>
	<linearGradient id="SVGID_17_" gradientUnits="userSpaceOnUse" x1="-164.3162" y1="-19.4834" x2="-9.3164" y2="-165.4832">
		<stop  offset="0" style="stop-color:#0BB6BA"/>
		<stop  offset="1" style="stop-color:#14A98A"/>
	</linearGradient>
	<path fill="url(#SVGID_17_)" d="M-50.114-34.03h-93.76c-1.127,0-2.039-0.913-2.039-2.04v-93.772h4.08v91.732h91.719V-34.03z"/>
	<linearGradient id="SVGID_18_" gradientUnits="userSpaceOnUse" x1="-172.0803" y1="-27.7271" x2="-17.0803" y2="-173.7271">
		<stop  offset="0" style="stop-color:#0BB6BA"/>
		<stop  offset="1" style="stop-color:#14A98A"/>
	</linearGradient>
	<path fill="url(#SVGID_18_)" d="M-142.429-66.668l-2.888-2.882l30.139-30.2c0.383-0.383,0.902-0.599,1.445-0.599
		c0.541,0,1.061,0.215,1.443,0.599l14.631,14.66l46.109-46.203l2.888,2.882l-47.554,47.649c-0.383,0.384-0.902,0.599-1.443,0.599
		c-0.542,0-1.063-0.215-1.444-0.599l-14.63-14.66L-142.429-66.668z"/>
	<linearGradient id="SVGID_19_" gradientUnits="userSpaceOnUse" x1="-165.5725" y1="-20.8042" x2="-10.5629" y2="-166.8132">
		<stop  offset="0" style="stop-color:#0BB6BA"/>
		<stop  offset="1" style="stop-color:#14A98A"/>
	</linearGradient>
	<path fill="url(#SVGID_19_)" d="M-48.045-118.341h-4.08v-9.49h-9.467v-4.08h11.507c1.127,0,2.04,0.914,2.04,2.04V-118.341z"/>
	<linearGradient id="SVGID_20_" gradientUnits="userSpaceOnUse" x1="-163.4607" y1="-18.5752" x2="-8.4595" y2="-164.5763">
		<stop  offset="0" style="stop-color:#0BB6BA"/>
		<stop  offset="1" style="stop-color:#14A98A"/>
	</linearGradient>
	<path fill="url(#SVGID_20_)" d="M-123.68-34.03h-9.376c-1.127,0-2.04-0.913-2.04-2.04v-31.121c0-1.127,0.913-2.04,2.04-2.04h9.376
		c1.127,0,2.04,0.913,2.04,2.04v31.121C-121.64-34.943-122.553-34.03-123.68-34.03z M-131.016-38.11h5.296v-27.041h-5.296V-38.11z"
		/>
	<linearGradient id="SVGID_21_" gradientUnits="userSpaceOnUse" x1="-155.384" y1="-10.0005" x2="-0.3813" y2="-156.003">
		<stop  offset="0" style="stop-color:#0BB6BA"/>
		<stop  offset="1" style="stop-color:#14A98A"/>
	</linearGradient>
	<path fill="url(#SVGID_21_)" d="M-102.754-34.03h-9.376c-1.126,0-2.04-0.913-2.04-2.04v-38.177c0-1.126,0.914-2.039,2.04-2.039
		h9.376c1.127,0,2.04,0.913,2.04,2.039v38.177C-100.714-34.943-101.627-34.03-102.754-34.03z M-110.09-38.11h5.296v-34.096h-5.296
		V-38.11z"/>
	<linearGradient id="SVGID_22_" gradientUnits="userSpaceOnUse" x1="-145.5461" y1="0.4434" x2="9.4554" y2="-145.5581">
		<stop  offset="0" style="stop-color:#0BB6BA"/>
		<stop  offset="1" style="stop-color:#14A98A"/>
	</linearGradient>
	<path fill="url(#SVGID_22_)" d="M-81.828-34.03h-9.376c-1.126,0-2.04-0.913-2.04-2.04v-38.177c0-1.126,0.914-2.039,2.04-2.039
		h9.376c1.127,0,2.04,0.913,2.04,2.039v38.177C-79.788-34.943-80.701-34.03-81.828-34.03z M-89.164-38.11h5.296v-34.096h-5.296
		V-38.11z"/>
	<linearGradient id="SVGID_23_" gradientUnits="userSpaceOnUse" x1="-141.1628" y1="5.0967" x2="13.8372" y2="-140.9034">
		<stop  offset="0" style="stop-color:#0BB6BA"/>
		<stop  offset="1" style="stop-color:#14A98A"/>
	</linearGradient>
	<path fill="url(#SVGID_23_)" d="M-60.903-34.03h-9.375c-1.127,0-2.04-0.913-2.04-2.04v-60.037c0-1.127,0.913-2.04,2.04-2.04h9.375
		c1.127,0,2.041,0.913,2.041,2.04v60.037C-58.862-34.943-59.776-34.03-60.903-34.03z M-68.238-38.11h5.296v-55.957h-5.296V-38.11z"
		/>
</g>
<g>
	<linearGradient id="SVGID_24_" gradientUnits="userSpaceOnUse" x1="77.5164" y1="54.8867" x2="52.0382" y2="83.1699">
		<stop  offset="0" style="stop-color:#0BB6BA"/>
		<stop  offset="1" style="stop-color:#14A98A"/>
	</linearGradient>
	<path fill="url(#SVGID_24_)" d="M90.292,87.972H46.42c-0.511,0-0.927-0.418-0.927-0.929V43.168h1.854v42.947h42.945V87.972z"/>
	<linearGradient id="SVGID_25_" gradientUnits="userSpaceOnUse" x1="77.6277" y1="54.9854" x2="52.1491" y2="83.269">
		<stop  offset="0" style="stop-color:#0BB6BA"/>
		<stop  offset="1" style="stop-color:#14A98A"/>
	</linearGradient>
	<path fill="url(#SVGID_25_)" d="M47.184,87.593l-1.532-1.046l11.694-17.133c0.194-0.286,0.531-0.438,0.874-0.398l4.053,0.477
		l7.517-7.121c0.141-0.133,0.32-0.219,0.513-0.245l5.311-0.721L86.075,50.94l1.31,1.311L76.703,62.938
		c-0.143,0.144-0.329,0.237-0.53,0.264l-5.324,0.721l-7.614,7.213c-0.2,0.188-0.474,0.279-0.748,0.247l-3.926-0.461L47.184,87.593z"
		/>
	<linearGradient id="SVGID_26_" gradientUnits="userSpaceOnUse" x1="80.8621" y1="57.8999" x2="55.3818" y2="86.1854">
		<stop  offset="0" style="stop-color:#0BB6BA"/>
		<stop  offset="1" style="stop-color:#14A98A"/>
	</linearGradient>
	<path fill="url(#SVGID_26_)" d="M87.658,56.345h-1.855v-3.822h-3.821v-1.855h4.749c0.512,0,0.928,0.416,0.928,0.928V56.345z"/>
	<linearGradient id="SVGID_27_" gradientUnits="userSpaceOnUse" x1="77.9324" y1="55.2637" x2="52.4553" y2="83.5456">
		<stop  offset="0" style="stop-color:#0BB6BA"/>
		<stop  offset="1" style="stop-color:#14A98A"/>
	</linearGradient>
	<rect x="53.942" y="74.688" fill="url(#SVGID_27_)" width="1.854" height="12.354"/>
	<linearGradient id="SVGID_28_" gradientUnits="userSpaceOnUse" x1="80.5369" y1="57.6064" x2="55.0585" y2="85.8898">
		<stop  offset="0" style="stop-color:#0BB6BA"/>
		<stop  offset="1" style="stop-color:#14A98A"/>
	</linearGradient>
	<rect x="60.615" y="70.34" fill="url(#SVGID_28_)" width="1.854" height="16.703"/>
	<linearGradient id="SVGID_29_" gradientUnits="userSpaceOnUse" x1="82.9285" y1="59.7603" x2="57.4498" y2="88.0439">
		<stop  offset="0" style="stop-color:#0BB6BA"/>
		<stop  offset="1" style="stop-color:#14A98A"/>
	</linearGradient>
	<rect x="67.291" y="65.138" fill="url(#SVGID_29_)" width="1.854" height="21.905"/>
	<linearGradient id="SVGID_30_" gradientUnits="userSpaceOnUse" x1="85.9431" y1="62.4756" x2="60.4642" y2="90.7595">
		<stop  offset="0" style="stop-color:#0BB6BA"/>
		<stop  offset="1" style="stop-color:#14A98A"/>
	</linearGradient>
	<rect x="73.967" y="62.439" fill="url(#SVGID_30_)" width="1.853" height="24.604"/>
	<linearGradient id="SVGID_31_" gradientUnits="userSpaceOnUse" x1="88.2146" y1="64.5229" x2="62.7363" y2="92.8062">
		<stop  offset="0" style="stop-color:#0BB6BA"/>
		<stop  offset="1" style="stop-color:#14A98A"/>
	</linearGradient>
	<rect x="80.64" y="56.76" fill="url(#SVGID_31_)" width="1.854" height="30.283"/>
</g>
</svg>
